<svg width="371" height="70" viewBox="0 0 371 70" fill="none" xmlns="http://www.w3.org/2000/svg">
<path d="M54.7236 42.955C54.3576 39.8301 51.9768 37.4917 49.2361 37.5643C46.3199 37.649 43.8484 40.4169 43.8847 43.9654C43.9301 47.7709 46.8009 50.5903 50.0741 50.0458C53.1234 49.5315 55.1108 46.2856 54.7236 42.958V42.955ZM47.7115 14.8156C49.8623 15.2875 51.3718 14.2741 51.1812 12.6315C50.9967 11.0615 49.3027 9.39464 47.3091 8.82592C45.2279 8.23603 43.4854 9.02255 43.5036 10.6803C43.5247 12.4197 45.4548 14.3165 47.7115 14.8156ZM34.5312 23.1164C34.7762 20.5905 32.3954 18.2521 29.0436 17.7257C25.474 17.1661 21.85 18.8087 21.1119 21.5888C20.3253 24.5806 23.1931 27.3969 27.3012 27.6692C31.1279 27.9203 34.2649 25.8027 34.5312 23.1164ZM58.989 25.8995C59.3913 28.0141 61.3214 29.9078 63.1969 30.0348C64.9847 30.1498 65.9407 28.5919 65.4294 26.6316C64.9363 24.7591 63.2423 23.0922 61.5573 22.826C59.7967 22.5507 58.6078 23.8818 58.989 25.8965V25.8995ZM17.1218 60.4975C12.9834 64.5753 6.98167 65.9729 4.14414 63.1928C1.30963 60.4007 3.18518 54.9495 7.8408 51.3738C12.0275 48.1642 17.0189 47.6529 19.3603 49.946C21.6987 52.2481 20.8426 56.819 17.1248 60.4944L17.1218 60.4975ZM62.7764 12.1505C61.8538 11.243 60.6347 10.8709 60.0327 11.3307C59.4065 11.8117 59.6848 13.0036 60.677 13.9807C61.6692 14.9547 62.9398 15.2815 63.4964 14.7339C64.0318 14.2045 63.7021 13.058 62.7764 12.1505ZM29.4823 2.20702C28.1573 0.906234 25.6344 0.131811 23.7497 0.494822C21.7532 0.882034 21.2389 2.37945 22.7091 3.82242C24.1793 5.26539 26.9473 5.97931 28.7956 5.44992C30.538 4.94775 30.8073 3.50781 29.4823 2.204V2.20702ZM71.4947 43.4904C70.1697 42.1896 68.5997 42.353 67.9523 43.9291C67.2687 45.6019 67.8707 48.2005 69.3409 49.6465C70.8111 51.0894 72.4597 50.7053 72.9982 48.8872C73.5034 47.1689 72.8197 44.7942 71.4977 43.4904H71.4947Z" fill="url(#paint0_linear_194_1433)"/>
<path d="M54.7236 42.954C54.3576 39.8291 51.9768 37.4907 49.2361 37.5633C46.3199 37.648 43.8484 40.4159 43.8847 43.9644C43.9301 47.7699 46.8009 50.5893 50.0741 50.0448C53.1234 49.5305 55.1108 46.2846 54.7236 42.957V42.954ZM47.7115 14.8146C49.8623 15.2865 51.3718 14.2731 51.1812 12.6305C50.9967 11.0605 49.3027 9.39366 47.3091 8.82494C45.2279 8.23505 43.4854 9.02157 43.5036 10.6793C43.5247 12.4187 45.4548 14.3155 47.7115 14.8146ZM34.5312 23.1155C34.7762 20.5895 32.3954 18.2511 29.0436 17.7248C25.474 17.1651 21.85 18.8077 21.1119 21.5878C20.3253 24.5796 23.1931 27.396 27.3012 27.6682C31.1279 27.9193 34.2649 25.8017 34.5312 23.1155ZM58.989 25.8985C59.3913 28.0131 61.3214 29.9068 63.1969 30.0338C64.9847 30.1488 65.9407 28.5909 65.4294 26.6306C64.9363 24.7581 63.2423 23.0913 61.5573 22.8251C59.7967 22.5498 58.6078 23.8808 58.989 25.8955V25.8985ZM17.1218 60.4965C12.9834 64.5743 6.98167 65.9719 4.14414 63.1918C1.30963 60.3997 3.18518 54.9485 7.8408 51.3728C12.0275 48.1632 17.0189 47.652 19.3603 49.945C21.6987 52.2471 20.8426 56.818 17.1248 60.4935L17.1218 60.4965ZM62.7764 12.1495C61.8538 11.242 60.6347 10.8699 60.0327 11.3297C59.4065 11.8107 59.6848 13.0026 60.677 13.9797C61.6692 14.9538 62.9398 15.2805 63.4964 14.7329C64.0318 14.2036 63.7021 13.057 62.7764 12.1495ZM29.4823 2.20605C28.1573 0.905258 25.6344 0.130835 23.7497 0.493846C21.7532 0.881057 21.2389 2.37848 22.7091 3.82144C24.1793 5.26441 26.9473 5.97833 28.7956 5.44894C30.538 4.94678 30.8073 3.50683 29.4823 2.20302V2.20605ZM71.4947 43.4894C70.1697 42.1887 68.5997 42.352 67.9523 43.9281C67.2687 45.601 67.8707 48.1995 69.3409 49.6455C70.8111 51.0885 72.4597 50.7043 72.9982 48.8862C73.5034 47.1679 72.8197 44.7933 71.4977 43.4894H71.4947Z" fill="url(#paint1_linear_194_1433)"/>
<path d="M8.14313 64.6535C7.67121 64.6535 7.21745 64.6111 6.78486 64.5294C5.72003 64.3267 4.82763 63.879 4.13488 63.2014C3.1729 62.2546 2.71309 60.9507 2.80687 59.4382C2.97325 56.7126 4.90023 53.6179 7.83154 51.3673C9.8402 49.8275 12.1332 48.8413 14.2901 48.5872C16.4198 48.3361 18.2197 48.8171 19.3662 49.9394C20.2193 50.7774 20.67 51.942 20.67 53.3033C20.67 54.4226 20.3615 55.6599 19.7746 56.876C19.1575 58.1586 18.2681 59.3777 17.1276 60.503C16.1142 61.5043 14.9768 62.3544 13.7516 63.0381C12.5598 63.7006 11.3467 64.1664 10.1457 64.4266C9.44996 64.5778 8.77839 64.6535 8.14313 64.6535ZM15.361 48.5449C15.0161 48.5449 14.6592 48.566 14.2901 48.6084C12.1393 48.8625 9.84928 49.8456 7.84364 51.3824C4.91838 53.63 2.99442 56.7156 2.82804 59.4352C2.73427 60.9417 3.19105 62.2394 4.15001 63.1802C5.50525 64.5083 7.63189 64.9408 10.1397 64.3993C12.5779 63.873 15.119 62.4451 17.1095 60.4819C19.3571 58.2614 20.6458 55.6447 20.6428 53.3003C20.6428 51.9451 20.1921 50.7864 19.345 49.9515C18.4012 49.0258 17.0097 48.5388 15.358 48.5388L15.361 48.5449ZM71.1557 50.5384C70.5568 50.5384 69.9245 50.2329 69.3316 49.6551C68.6237 48.9593 68.0883 47.9701 67.8251 46.875C67.565 45.789 67.6043 44.7393 67.9401 43.9255C68.2305 43.2237 68.7205 42.7669 69.3256 42.6429C70.0213 42.5007 70.8139 42.8063 71.5036 43.4839C72.8498 44.8089 73.5093 47.1836 73.0071 48.8897C72.753 49.7458 72.2478 50.3115 71.5853 50.4839C71.4462 50.5202 71.3009 50.5384 71.1557 50.5384ZM69.6704 42.6308C69.5555 42.6308 69.4435 42.6429 69.3316 42.6641C68.7357 42.7851 68.2486 43.2358 67.9613 43.9316C67.2746 45.6075 67.9098 48.2212 69.3467 49.6369C70.0758 50.3539 70.8684 50.6473 71.5793 50.4597C72.2357 50.2903 72.7318 49.7307 72.9829 48.8806C73.482 47.1805 72.8256 44.8149 71.4855 43.496C70.9107 42.9333 70.2664 42.6278 69.6674 42.6278L69.6704 42.6308ZM49.2662 50.124C48.1197 50.124 47.0155 49.7186 46.0898 48.9411C44.7074 47.7825 43.8997 45.9705 43.8755 43.9649C43.8573 42.2678 44.4139 40.6675 45.4455 39.4575C46.4589 38.2686 47.8051 37.594 49.2359 37.5517C49.2783 37.5517 49.3206 37.5517 49.36 37.5517C50.6426 37.5517 51.8889 38.0811 52.8751 39.0521C53.8946 40.0534 54.554 41.4389 54.7325 42.9545C54.9231 44.588 54.5541 46.2246 53.6949 47.5617C52.8207 48.923 51.535 49.8093 50.0739 50.0544C49.8016 50.0998 49.5324 50.1209 49.2632 50.1209L49.2662 50.124ZM49.363 37.5729C49.3206 37.5729 49.2783 37.5729 49.2359 37.5729C46.2532 37.6576 43.8604 40.5253 43.8967 43.9618C43.9209 45.9614 44.7255 47.7674 46.105 48.923C47.2424 49.8759 48.6521 50.2692 50.0709 50.0302C53.0234 49.5341 55.1076 46.3577 54.7114 42.9545C54.3483 39.8629 52.0614 37.5729 49.363 37.5729ZM63.3782 30.0525C63.3177 30.0525 63.2572 30.0525 63.1967 30.0464C61.3121 29.9194 59.3821 28.0226 58.9767 25.9021C58.7831 24.8705 58.9828 23.9842 59.5454 23.4033C60.0355 22.8981 60.7494 22.6894 61.5571 22.8165C63.2421 23.0827 64.9452 24.7556 65.4383 26.6281C65.7166 27.6899 65.5714 28.67 65.039 29.3174C64.6457 29.7954 64.0619 30.0525 63.3782 30.0525ZM59.0009 25.896C59.4033 28.0075 61.3242 29.8952 63.1998 30.0222C63.953 30.0706 64.6004 29.8165 65.0239 29.3023C65.5502 28.664 65.6955 27.6899 65.4202 26.6341C64.9301 24.7707 63.233 23.1039 61.5571 22.8376C60.7585 22.7136 60.0476 22.9193 59.5636 23.4185C59.007 23.9932 58.8073 24.8735 59.0009 25.896ZM27.9121 27.699C27.7094 27.699 27.5037 27.6929 27.301 27.6778C24.9505 27.5205 22.8844 26.5101 21.7802 24.9764C21.027 23.9297 20.7941 22.756 21.1026 21.5853C21.4565 20.2512 22.4911 19.1198 24.0127 18.3938C25.5102 17.6829 27.298 17.4409 29.0465 17.7131C30.671 17.9703 32.126 18.66 33.1455 19.6643C34.1649 20.6656 34.6611 21.8938 34.5431 23.119C34.413 24.4379 33.5993 25.6419 32.2561 26.5041C31.0431 27.2845 29.5184 27.702 27.9121 27.702V27.699ZM27.6338 17.6254C26.3602 17.6254 25.1139 17.8947 24.0218 18.4119C22.5063 19.1349 21.4747 20.2633 21.1238 21.5883C20.8183 22.756 21.0512 23.9206 21.7984 24.9613C22.8995 26.492 24.9566 27.4993 27.301 27.6536C29.1282 27.7716 30.8827 27.3571 32.244 26.4799C33.5811 25.6207 34.3888 24.4228 34.5189 23.1099C34.6369 21.8908 34.1438 20.6717 33.1273 19.6734C32.1109 18.6751 30.6589 17.9854 29.0404 17.7313C28.5716 17.6587 28.0996 17.6224 27.6308 17.6224L27.6338 17.6254ZM62.7581 15.0117C62.6008 15.0117 62.4284 14.9875 62.2469 14.9391C61.7084 14.797 61.1487 14.4582 60.6678 13.9893C60.0295 13.36 59.6544 12.6007 59.6907 12.0048C59.7088 11.7144 59.8238 11.4784 60.0264 11.3242C60.3199 11.1003 60.7676 11.064 61.2879 11.2183C61.8052 11.3726 62.3346 11.7023 62.7853 12.144C63.3873 12.7369 63.7624 13.4659 63.7654 14.0498C63.7654 14.3341 63.6747 14.5761 63.5053 14.7455C63.3238 14.924 63.0667 15.0148 62.7611 15.0148L62.7581 15.0117ZM60.692 11.1457C60.4318 11.1457 60.2079 11.2122 60.0385 11.3423C59.8419 11.4936 59.73 11.7235 59.7118 12.0078C59.6755 12.5977 60.0476 13.351 60.6829 13.9741C61.1608 14.443 61.7175 14.7788 62.2499 14.918C62.7793 15.0571 63.2179 14.9906 63.4841 14.7274C63.6505 14.564 63.7382 14.3281 63.7382 14.0498C63.7382 13.472 63.3661 12.749 62.7672 12.1621C62.3195 11.7235 61.7931 11.3968 61.2788 11.2425C61.0701 11.179 60.8704 11.1487 60.692 11.1487V11.1457ZM48.7308 14.9452C48.4071 14.9452 48.0622 14.9059 47.7083 14.8272C45.4455 14.325 43.5125 12.4283 43.4913 10.6798C43.4852 10.0385 43.7363 9.50608 44.2203 9.13702C44.9373 8.58948 46.0929 8.46847 47.312 8.81636C49.3025 9.38508 51.0056 11.058 51.1932 12.631C51.2718 13.3056 51.0601 13.9076 50.5972 14.325C50.1465 14.7334 49.4931 14.9452 48.7308 14.9452ZM47.7113 14.806C48.8971 15.0662 49.9408 14.8847 50.5791 14.3069C51.0359 13.8955 51.2446 13.2995 51.1659 12.634C50.9814 11.0701 49.2843 9.40323 47.3029 8.84056C46.0929 8.4957 44.9433 8.6167 44.2324 9.15819C43.7545 9.52423 43.5034 10.0506 43.5125 10.6828C43.5336 12.4192 45.4576 14.3069 47.7113 14.806ZM27.4402 5.64002C26.8594 5.64002 26.2362 5.55531 25.607 5.38893C24.4423 5.08037 23.4077 4.52678 22.6999 3.83101C22.0011 3.14129 21.7197 2.41527 21.9103 1.78303C22.1039 1.14473 22.7725 0.67282 23.7465 0.485264C25.6191 0.125278 28.142 0.878526 29.4882 2.20049C30.1597 2.85996 30.4411 3.56783 30.2838 4.19402C30.1355 4.77787 29.6061 5.2286 28.7954 5.46456C28.384 5.58254 27.9272 5.64002 27.4402 5.64002ZM24.7418 0.418712C24.4 0.418712 24.0642 0.448963 23.7496 0.509465C22.7846 0.69702 22.1221 1.16591 21.9315 1.7921C21.7439 2.41527 22.0222 3.13524 22.715 3.81891C24.1549 5.23163 26.935 5.9758 28.7894 5.44339C29.594 5.21045 30.1144 4.76577 30.2626 4.191C30.4199 3.57388 30.1386 2.87206 29.473 2.21864C28.3568 1.12053 26.4328 0.418712 24.7418 0.418712Z" fill="#252825"/>
<path d="M42.6207 19.0407C45.6367 17.0834 50.141 17.9456 53.0088 20.7589C55.8736 23.5783 56.5391 27.7892 54.2491 30.4664C51.6294 33.5157 46.2629 33.4189 42.6116 29.8372C38.9633 26.2464 39.1781 21.2853 42.6207 19.0407ZM58.1333 34.2841C56.7055 36.3139 57.2167 39.82 59.3887 41.9587C61.5638 44.0944 64.3015 43.7768 65.4147 41.4414C66.4372 39.2876 65.693 36.1808 63.8235 34.3385C61.951 32.5023 59.4462 32.4206 58.1303 34.2841H58.1333ZM38.6124 15.102C40.7058 13.9978 40.7663 11.6836 38.8968 9.84439C37.0242 8.00816 33.7118 7.13391 31.328 7.94766C28.7385 8.83703 28.2303 11.3418 30.4053 13.4805C32.5804 15.6163 36.3375 16.2999 38.6124 15.105V15.102ZM37.5839 34.0844C35.064 31.6129 30.4658 31.4586 26.9809 33.9816C23.0725 36.8191 22.0561 41.8468 25.1568 44.9021C28.2636 47.9484 33.7571 47.3131 37.0515 43.8797C39.9858 40.8122 40.1007 36.565 37.5839 34.0844ZM55.5408 18.4508C57.2137 20.0934 59.4583 20.5018 60.4868 19.4309C61.4518 18.4235 60.9829 16.4693 59.4976 15.0082C58.0093 13.5471 55.928 12.9996 54.7845 13.8254C53.5624 14.7118 53.8679 16.8051 55.5408 18.4508ZM50.5222 56.7363C48.0628 57.3383 46.0451 60.6114 46.1419 64.2083C46.2508 68.0259 48.6587 70.3915 51.3662 69.3418C53.9163 68.3466 55.5801 64.7256 55.2353 61.3707C54.9055 58.1914 52.8515 56.1706 50.5192 56.7363H50.5222ZM69.2082 24.8549C68.1736 24.7066 67.6139 25.6142 67.9951 26.9271C68.3884 28.2793 69.6105 29.4802 70.6814 29.5649C71.719 29.6466 72.1818 28.6423 71.7553 27.3536C71.3378 26.1042 70.2155 25.0001 69.2112 24.8549H69.2082ZM9.20249 16.1366C5.59961 15.6163 1.59137 16.9352 0.363181 19.2282C-0.934583 21.6664 1.47339 24.0321 5.58751 24.3618C9.46265 24.6703 13.12 23.0035 13.9156 20.771C14.6658 18.6504 12.6118 16.6357 9.19947 16.1366H9.20249ZM46.9133 2.95021C45.5489 2.47829 44.4357 2.84433 44.4629 3.80631C44.4932 4.79854 45.7123 5.9995 47.1492 6.44419C48.5438 6.87375 49.5572 6.41394 49.4574 5.44893C49.3606 4.51115 48.2382 3.41002 46.9133 2.95021Z" fill="url(#paint2_linear_194_1433)"/>
<path d="M50.0865 69.6053C49.4694 69.6053 48.8735 69.4238 48.329 69.0608C47.0161 68.1896 46.1932 66.3745 46.1327 64.2086C46.0874 62.4843 46.523 60.757 47.364 59.3442C48.1928 57.9497 49.3151 57.021 50.5191 56.7275C51.4509 56.5007 52.3614 56.6791 53.154 57.2388C54.2944 58.0434 55.0568 59.5499 55.2473 61.371C55.4167 63.0137 55.1142 64.747 54.3973 66.2505C53.6682 67.7752 52.5943 68.8793 51.3692 69.3573C50.9336 69.5267 50.504 69.6114 50.0835 69.6114L50.0865 69.6053ZM50.5252 56.7487C49.3242 57.0421 48.211 57.9678 47.3821 59.3563C46.5442 60.766 46.1055 62.4903 46.1539 64.2086C46.2144 66.3685 47.0312 68.1745 48.3411 69.0427C49.2486 69.6447 50.2953 69.7475 51.3631 69.3331C52.5822 68.8581 53.6531 67.76 54.3791 66.2384C55.0931 64.741 55.3956 63.0106 55.2262 61.371C55.0386 59.556 54.2793 58.0555 53.1419 57.2539C52.3523 56.6973 51.4478 56.5218 50.5252 56.7457V56.7487ZM30.2087 46.8718C28.2333 46.8718 26.4424 46.179 25.1477 44.9115C23.8439 43.6259 23.1995 41.9046 23.3387 40.0563C23.4234 38.9461 23.7894 37.8116 24.4005 36.774C25.0267 35.7092 25.9161 34.7412 26.9718 33.9728C28.6417 32.7628 30.6564 32.1154 32.6409 32.1487C34.5981 32.182 36.3557 32.8656 37.5869 34.0757C38.8181 35.2887 39.4534 36.9525 39.3686 38.7615C39.2839 40.5947 38.4641 42.4158 37.0545 43.886C36.159 44.8178 35.1003 45.5559 33.9053 46.0762C32.7619 46.5753 31.5246 46.8506 30.3297 46.8688C30.2873 46.8688 30.245 46.8688 30.2026 46.8688L30.2087 46.8718ZM32.5077 32.185C30.6292 32.185 28.6538 32.787 26.987 33.994C24.8573 35.5398 23.5353 37.7511 23.3629 40.0593C23.2237 41.8985 23.8651 43.6168 25.1659 44.8964C26.4545 46.1579 28.2424 46.8506 30.2087 46.8506C30.251 46.8506 30.2934 46.8506 30.3357 46.8506C32.8193 46.8143 35.2636 45.7283 37.0424 43.8739C39.889 40.9003 40.1219 36.6046 37.5748 34.0938C36.28 32.8233 34.4438 32.185 32.5077 32.185ZM62.4924 43.402C61.4367 43.402 60.3295 42.8968 59.3796 41.9681C58.336 40.9396 57.6311 39.5601 57.3982 38.0839C57.1713 36.644 57.4345 35.2585 58.1212 34.2783C58.6869 33.4767 59.4794 33.0108 60.4142 32.9261C60.514 32.9171 60.6108 32.914 60.7107 32.914C61.7785 32.914 62.9008 33.4192 63.8295 34.3328C64.7431 35.2312 65.4116 36.4504 65.7111 37.7723C66.0167 39.1064 65.9138 40.4132 65.4207 41.4478C64.9216 42.4975 64.0776 43.1751 63.046 43.3566C62.8615 43.3899 62.677 43.405 62.4864 43.405L62.4924 43.402ZM58.1424 34.2904C56.6933 36.3475 57.2681 39.8566 59.3978 41.95C60.508 43.042 61.839 43.5442 63.049 43.3294C64.0715 43.1479 64.9095 42.4763 65.4086 41.4327C66.4129 39.3212 65.7142 36.2053 63.8204 34.3449C62.8948 33.4374 61.7785 32.9322 60.7167 32.9322C60.6169 32.9322 60.5201 32.9352 60.4202 32.9443C59.4915 33.029 58.705 33.4918 58.1454 34.2874L58.1424 34.2904ZM49.1578 32.6569C46.8073 32.6569 44.4357 31.6435 42.6025 29.8466C40.7088 27.9831 39.7498 25.6266 39.9767 23.385C40.1582 21.5699 41.096 20.0241 42.6146 19.0319C44.0606 18.0941 45.927 17.7644 47.8722 18.1002C49.784 18.4329 51.6112 19.3737 53.0178 20.7532C54.4215 22.1356 55.329 23.8781 55.5741 25.6659C55.8221 27.484 55.3562 29.1932 54.2581 30.4728C53.1237 31.7947 51.4357 32.5661 49.5057 32.6478C49.3908 32.6539 49.2758 32.6569 49.1609 32.6569H49.1578ZM42.6267 19.05C41.1141 20.0362 40.1794 21.576 39.9979 23.385C39.774 25.6205 40.7299 27.971 42.6176 29.8284C44.4448 31.6223 46.8104 32.6327 49.1548 32.6327C49.2698 32.6327 49.3847 32.6327 49.4997 32.6266C51.4236 32.545 53.1056 31.7736 54.237 30.4577C56.4816 27.8349 55.9492 23.6694 52.9967 20.7653C50.0412 17.8642 45.5822 17.1261 42.6236 19.047L42.6267 19.05ZM70.7963 29.5804C70.757 29.5804 70.7177 29.5804 70.6783 29.5743C70.158 29.532 69.5893 29.2325 69.075 28.7273C68.5608 28.2221 68.1735 27.5838 67.983 26.9274C67.7712 26.1983 67.8408 25.56 68.1736 25.1758C68.4156 24.8975 68.7816 24.7796 69.2081 24.8401C70.2215 24.9883 71.3408 26.0894 71.7613 27.3479C72.0063 28.092 71.964 28.7787 71.6433 29.1871C71.4437 29.4442 71.1502 29.5774 70.7963 29.5774V29.5804ZM68.9873 24.8491C68.6606 24.8491 68.3883 24.9671 68.1917 25.194C67.862 25.5721 67.7954 26.2014 68.0042 26.9244C68.1947 27.5778 68.5789 28.213 69.0902 28.7122C69.6014 29.2143 70.1641 29.5108 70.6783 29.5532C71.0807 29.5864 71.4074 29.4533 71.6252 29.178C71.9428 28.7757 71.9852 28.0951 71.7401 27.3569C71.3227 26.1076 70.2094 25.0125 69.2051 24.8643C69.1295 24.8522 69.0569 24.8491 68.9873 24.8491ZM6.51618 24.4105C6.20762 24.4105 5.89604 24.3984 5.58748 24.3742C4.33509 24.2744 3.18253 23.9749 2.25685 23.5121C1.36143 23.0643 0.695907 22.4714 0.326846 21.7999C-0.117842 20.9861 -0.108767 20.0967 0.354072 19.2255C0.943964 18.1244 2.19938 17.2017 3.88738 16.6209C5.55118 16.0492 7.43883 15.8737 9.20246 16.1308C10.2461 16.2821 11.2111 16.5876 11.9886 17.0142C12.7479 17.4286 13.3347 17.958 13.6887 18.5418C14.1122 19.2467 14.1969 20.0211 13.9276 20.7774C13.5374 21.8725 12.4665 22.8496 10.9116 23.5332C9.59875 24.108 8.06503 24.4135 6.51618 24.4135V24.4105ZM7.59916 16.034C4.44097 16.034 1.39773 17.3227 0.375247 19.2315C-0.0845664 20.0937 -0.0936417 20.977 0.348021 21.7847C0.714057 22.4533 1.37655 23.0432 2.26895 23.4878C3.19161 23.9507 4.34114 24.2471 5.5905 24.347C7.44488 24.4952 9.32951 24.1957 10.9056 23.506C12.4544 22.8284 13.5223 21.8543 13.9095 20.7653C14.1757 20.012 14.094 19.2467 13.6735 18.5479C12.9505 17.3469 11.2777 16.4485 9.20246 16.146C8.67307 16.0703 8.1346 16.031 7.59916 16.031V16.034ZM58.9168 20.0362C57.8035 20.0362 56.5421 19.4494 55.5347 18.4602C54.5213 17.4619 53.9617 16.2518 54.0373 15.2173C54.0827 14.6213 54.3368 14.1373 54.7785 13.8166C55.9159 12.9938 57.9911 13.5141 59.5067 14.9994C61.0192 16.4878 61.4548 18.436 60.4959 19.4373C60.1298 19.8184 59.5974 20.0241 58.9622 20.0362C58.947 20.0362 58.9319 20.0362 58.9168 20.0362ZM55.5499 18.445C56.5542 19.4312 57.8096 20.015 58.9168 20.015C58.9319 20.015 58.947 20.015 58.9622 20.015C59.5914 20.006 60.1177 19.8003 60.4807 19.4252C61.4306 18.4329 60.995 16.4969 59.4915 15.0176C57.9851 13.5383 55.9219 13.021 54.7906 13.8378C54.3549 14.1524 54.1039 14.6334 54.0585 15.2233C53.9829 16.2488 54.5395 17.4558 55.5499 18.4481V18.445ZM35.9896 15.6982C34.0142 15.6982 31.8362 14.8996 30.3962 13.4869C29.8457 12.9454 29.4524 12.3706 29.2316 11.7777C29.0198 11.209 28.9714 10.6524 29.0924 10.126C29.3193 9.13078 30.1119 8.35333 31.3249 7.93889C33.6724 7.13724 37.003 7.97217 38.9058 9.83865C39.898 10.8158 40.3821 11.9744 40.2278 13.018C40.1007 13.8923 39.529 14.6364 38.6184 15.1144C37.8622 15.5107 36.9486 15.7013 35.9896 15.7013V15.6982ZM33.2912 7.65453C32.6015 7.65453 31.936 7.75134 31.334 7.95704C30.127 8.37148 29.3405 9.14288 29.1166 10.1291C28.8716 11.203 29.3465 12.419 30.4144 13.4718C32.5471 15.5621 36.2982 16.3063 38.6094 15.0932C39.5108 14.6183 40.0795 13.8771 40.2066 13.012C40.3579 11.9774 39.8799 10.8248 38.8907 9.85075C37.481 8.46828 35.2878 7.65453 33.2912 7.65453ZM48.1323 6.61693C47.8298 6.61693 47.4971 6.56248 47.1462 6.4566C46.4504 6.24182 45.7849 5.8425 45.2706 5.34034C44.7563 4.83515 44.4659 4.29063 44.4538 3.80964C44.4447 3.47083 44.5779 3.1895 44.835 3.00194C45.2887 2.66919 46.0662 2.64801 46.9193 2.94447C48.2503 3.40731 49.3726 4.50844 49.4694 5.45227C49.5057 5.81225 49.3908 6.11476 49.1367 6.32349C48.8947 6.52012 48.5437 6.61995 48.1323 6.61995V6.61693ZM45.797 2.75691C45.4158 2.75691 45.0861 2.84464 44.8471 3.01707C44.593 3.2016 44.4659 3.47688 44.475 3.80662C44.4901 4.28458 44.7775 4.82305 45.2857 5.32219C45.797 5.82435 46.4595 6.21762 47.1522 6.4324C47.972 6.6865 48.7101 6.6381 49.1215 6.29929C49.3696 6.09359 49.4846 5.80015 49.4482 5.44924C49.3514 4.51146 48.2352 3.41941 46.9102 2.95959C46.5139 2.82346 46.1327 2.75389 45.797 2.75389V2.75691Z" fill="#252827"/>
<path d="M228.907 41.0205L228.56 40.3973L230.205 39.4747C230.877 39.0965 231.712 39.2599 232.187 39.8619C233.206 41.1597 235.124 41.9674 237.19 41.9674C240.509 41.9674 242.56 40.1674 242.871 38.3917C243.153 36.7884 241.982 35.3485 239.743 34.5377C239.02 34.2776 238.258 34.087 237.45 33.8843L237.075 33.7905C236.664 33.6877 236.319 33.4275 236.107 33.0615C235.895 32.6955 235.838 32.2689 235.953 31.8605L236.431 30.1181L237.118 30.3087C237.487 30.4115 237.871 30.5053 238.243 30.5991C239.138 30.8229 240.019 31.0438 240.89 31.3584C245.494 33.0222 246.65 36.38 246.196 38.9725C245.642 42.1398 242.369 45.3434 237.187 45.3434C233.627 45.3434 230.378 43.6463 228.904 41.0175L228.907 41.0205ZM231.128 26.7481L229.252 26.4305L229.37 25.7257C229.649 24.083 230.635 22.516 232.011 21.5329C234.153 19.9992 237.096 19.4304 239.882 20.0113C242.33 20.5225 244.372 21.8808 245.482 23.7382L245.848 24.3523L244.227 25.3203C243.567 25.7135 242.732 25.5774 242.239 24.9936C241.549 24.1798 240.466 23.5839 239.19 23.3177C237.311 22.9274 235.363 23.2874 233.974 24.2797C233.484 24.6306 233.073 25.169 232.849 25.7559C232.613 26.373 232.02 26.7693 231.385 26.7693C231.3 26.7693 231.213 26.7633 231.125 26.7481H231.128Z" fill="white"/>
<path d="M270.878 45.346C263.824 45.346 258.085 39.6074 258.085 32.5529C258.085 25.4984 263.824 19.7598 270.878 19.7598C274.29 19.7598 277.503 21.0908 279.92 23.5109C282.34 25.9309 283.671 29.1406 283.671 32.5529C283.671 39.6074 277.933 45.346 270.878 45.346ZM280.392 32.5529C280.392 27.3074 276.124 23.042 270.881 23.042C265.639 23.042 261.37 27.3074 261.37 32.5529C261.37 37.7984 265.639 42.0637 270.881 42.0637C276.124 42.0637 280.392 37.7953 280.392 32.5529Z" fill="white"/>
<path d="M297.111 32.7337V19.3779H298.875C299.737 19.3779 300.436 20.0798 300.436 20.9389V32.7337C300.436 37.3076 303.86 41.1888 308.235 41.567C309.048 41.6365 309.662 42.3051 309.662 43.1219V44.9218H308.949C302.423 44.9218 297.114 39.4554 297.114 32.7337H297.111Z" fill="white"/>
<path d="M334.62 21.2759L341.447 37.091H330.996V35.3607C330.996 34.4985 331.697 33.7997 332.557 33.7997H336.438L332.786 25.3386L325.266 43.9489C325.027 44.5418 324.458 44.926 323.817 44.926H321.318L330.859 21.3091C331.098 20.7162 331.667 20.332 332.308 20.332H333.183C333.806 20.332 334.369 20.7011 334.617 21.2759H334.62Z" fill="white"/>
<path d="M368.598 34.5243C367.106 36.0399 365.082 36.9565 362.977 37.0775L370.836 44.9215H367.064C366.646 44.9215 366.256 44.7612 365.96 44.4647L358.119 36.6358C357.671 36.1881 357.535 35.5196 357.78 34.9327C358.022 34.3458 358.588 33.9677 359.223 33.9677H362.517C365.406 33.9677 367.811 31.6686 367.878 28.8462C367.911 27.4214 367.382 26.0752 366.383 25.0527C365.385 24.0303 364.051 23.4676 362.629 23.4676H358.022C357.16 23.4676 356.461 22.7658 356.461 21.9067V20.3457H362.629C367.167 20.3457 370.921 24.0363 371 28.5709C371.039 30.7944 370.186 32.9059 368.601 34.5182L368.598 34.5243Z" fill="white"/>
<path d="M127.041 20.5527H140.751V22.1712C140.751 22.997 140.079 23.6686 139.254 23.6686H125.544V22.0502C125.544 21.2243 126.216 20.5527 127.041 20.5527ZM138.134 33.609H125.544V31.9906C125.544 31.1647 126.216 30.4932 127.041 30.4932H139.632V32.1116C139.632 32.9374 138.96 33.609 138.134 33.609ZM140.751 42.5542V44.1726H127.041C126.216 44.1726 125.544 43.5011 125.544 42.6752V41.0568H139.254C140.079 41.0568 140.751 41.7284 140.751 42.5542Z" fill="white"/>
<path d="M213.067 44.1569H211.376V22.0677C211.376 21.2419 212.048 20.5703 212.873 20.5703H214.564V42.6595C214.564 43.4854 213.893 44.1569 213.067 44.1569Z" fill="white"/>
<path d="M164.247 43.5488L151.926 26.9562V35.1451C151.926 35.9709 151.255 36.6425 150.429 36.6425H148.695V20.5732H150.456C150.928 20.5732 151.379 20.8001 151.66 21.1783L164.641 38.6603V22.0918C164.641 21.266 165.312 20.5944 166.138 20.5944H167.871V44.1568H165.451C164.979 44.1568 164.529 43.93 164.25 43.5518L164.247 43.5488Z" fill="white"/>
<path d="M191.866 23.7163H178.377V22.0707C178.377 21.2448 179.049 20.5732 179.874 20.5732H193.363V22.2189C193.363 23.0447 192.692 23.7163 191.866 23.7163ZM185.798 26.3572H187.443V42.6564C187.443 43.4822 186.772 44.1538 185.946 44.1538H184.3V27.8546C184.3 27.0288 184.972 26.3572 185.798 26.3572Z" fill="white"/>
<path d="M102.872 44.1539H101.991C101.377 44.1539 100.83 43.7848 100.6 43.2131L91.5215 20.5703H93.9113C94.5254 20.5703 95.0729 20.9394 95.2998 21.5111L102.43 39.2896L109.527 21.5141C109.757 20.9424 110.301 20.5733 110.918 20.5733H113.305L104.266 43.2131C104.036 43.7848 103.492 44.1569 102.875 44.1539H102.872Z" fill="white"/>
<defs>
<linearGradient id="paint0_linear_194_1433" x1="9.37842" y1="24.8957" x2="68.7246" y2="56.837" gradientUnits="userSpaceOnUse">
<stop stop-color="#D33661"/>
<stop offset="1" stop-color="#E7A53C"/>
</linearGradient>
<linearGradient id="paint1_linear_194_1433" x1="2.80705" y1="32.5235" x2="73.1646" y2="32.5235" gradientUnits="userSpaceOnUse">
<stop stop-color="#D33661"/>
<stop offset="1" stop-color="#E7A53C"/>
</linearGradient>
<linearGradient id="paint2_linear_194_1433" x1="3.85896" y1="12.5962" x2="65.3815" y2="45.7088" gradientUnits="userSpaceOnUse">
<stop stop-color="#D33661"/>
<stop offset="1" stop-color="#E7A53C"/>
</linearGradient>
</defs>
</svg>
