<svg width="728" height="729" viewBox="0 0 728 729" fill="none" xmlns="http://www.w3.org/2000/svg">
<path d="M6.24 139.192C2.832 139.192 0.624 136.824 0.624 133.16C0.624 129.528 2.912 127.112 6.336 127.112C9.104 127.112 11.168 128.728 11.568 131.24H9.408C9.008 129.88 7.84 129.08 6.288 129.08C4.128 129.08 2.768 130.648 2.768 133.144C2.768 135.624 4.144 137.224 6.288 137.224C7.872 137.224 9.088 136.392 9.472 135.096H11.6C11.152 137.56 9.008 139.192 6.24 139.192ZM12.6846 135.032C12.6846 132.568 14.4606 130.872 16.9086 130.872C19.3566 130.872 21.1326 132.568 21.1326 135.032C21.1326 137.496 19.3566 139.192 16.9086 139.192C14.4606 139.192 12.6846 137.496 12.6846 135.032ZM14.6366 135.032C14.6366 136.472 15.5646 137.448 16.9086 137.448C18.2526 137.448 19.1806 136.472 19.1806 135.032C19.1806 133.592 18.2526 132.616 16.9086 132.616C15.5646 132.616 14.6366 133.592 14.6366 135.032ZM24.6319 139H22.6799V131.096H24.4719L24.6319 132.024C25.0319 131.368 25.8319 130.856 26.9679 130.856C28.1679 130.856 28.9999 131.448 29.4159 132.36C29.8159 131.448 30.7439 130.856 31.9439 130.856C33.8639 130.856 34.9199 132.008 34.9199 133.832V139H32.9839V134.344C32.9839 133.208 32.3759 132.616 31.4479 132.616C30.5039 132.616 29.7839 133.224 29.7839 134.52V139H27.8319V134.328C27.8319 133.224 27.2399 132.632 26.3119 132.632C25.3839 132.632 24.6319 133.24 24.6319 134.52V139ZM38.7881 139H36.8361V131.096H38.6281L38.7881 132.024C39.1881 131.368 39.9881 130.856 41.1241 130.856C42.3241 130.856 43.1561 131.448 43.5721 132.36C43.9721 131.448 44.9001 130.856 46.1001 130.856C48.0201 130.856 49.0761 132.008 49.0761 133.832V139H47.1401V134.344C47.1401 133.208 46.5321 132.616 45.6041 132.616C44.6601 132.616 43.9401 133.224 43.9401 134.52V139H41.9881V134.328C41.9881 133.224 41.3961 132.632 40.4681 132.632C39.5401 132.632 38.7881 133.24 38.7881 134.52V139ZM54.5284 139.208C52.1764 139.208 50.5284 137.496 50.5284 135.048C50.5284 132.568 52.1444 130.856 54.4644 130.856C56.8324 130.856 58.3364 132.44 58.3364 134.904V135.496L52.3844 135.512C52.5284 136.904 53.2644 137.608 54.5604 137.608C55.6324 137.608 56.3364 137.192 56.5604 136.44H58.3684C58.0324 138.168 56.5924 139.208 54.5284 139.208ZM54.4804 132.456C53.3284 132.456 52.6244 133.08 52.4324 134.264H56.4004C56.4004 133.176 55.6484 132.456 54.4804 132.456ZM64.8586 131.064V132.872H64.1386C62.7306 132.872 61.8506 133.624 61.8506 135.16V139H59.8986V131.112H61.7386L61.8506 132.264C62.1866 131.48 62.9386 130.952 63.9946 130.952C64.2666 130.952 64.5386 130.984 64.8586 131.064ZM65.4503 135.032C65.4503 132.584 67.0663 130.856 69.4023 130.856C71.5623 130.856 73.0343 132.056 73.2423 133.96H71.2903C71.0663 133.064 70.4103 132.6 69.4823 132.6C68.2343 132.6 67.4023 133.544 67.4023 135.032C67.4023 136.52 68.1703 137.448 69.4183 137.448C70.3943 137.448 71.0823 136.968 71.2903 136.104H73.2583C73.0183 137.944 71.4823 139.208 69.4183 139.208C67.0182 139.208 65.4503 137.544 65.4503 135.032ZM75.6871 129.512C75.0151 129.512 74.4871 128.984 74.4871 128.328C74.4871 127.672 75.0151 127.16 75.6871 127.16C76.3271 127.16 76.8551 127.672 76.8551 128.328C76.8551 128.984 76.3271 129.512 75.6871 129.512ZM74.7111 139V131.096H76.6631V139H74.7111ZM81.0319 139.208C79.3519 139.208 78.3279 138.232 78.3279 136.744C78.3279 135.288 79.3839 134.376 81.2559 134.232L83.6239 134.056V133.88C83.6239 132.808 82.9839 132.376 81.9919 132.376C80.8399 132.376 80.1999 132.856 80.1999 133.688H78.5359C78.5359 131.976 79.9439 130.856 82.0879 130.856C84.2159 130.856 85.5279 132.008 85.5279 134.2V139H83.8159L83.6719 137.832C83.3359 138.648 82.2639 139.208 81.0319 139.208ZM81.6719 137.736C82.8719 137.736 83.6399 137.016 83.6399 135.8V135.384L81.9919 135.512C80.7759 135.624 80.3119 136.024 80.3119 136.664C80.3119 137.384 80.7919 137.736 81.6719 137.736ZM89.4135 139H87.4775V127.096H89.4135V139ZM3.344 146.304V158H1.296V146.304H3.344ZM7.60063 158H5.64863V150.096H7.45663L7.61663 151.12C8.11263 150.32 9.07263 149.856 10.1446 149.856C12.1286 149.856 13.1526 151.088 13.1526 153.136V158H11.2006V153.6C11.2006 152.272 10.5446 151.632 9.53663 151.632C8.33663 151.632 7.60063 152.464 7.60063 153.744V158ZM14.3688 155.6H16.2248C16.2408 156.288 16.7528 156.72 17.6488 156.72C18.5608 156.72 19.0568 156.352 19.0568 155.776C19.0568 155.376 18.8488 155.088 18.1448 154.928L16.7208 154.592C15.2968 154.272 14.6088 153.6 14.6088 152.336C14.6088 150.784 15.9208 149.856 17.7448 149.856C19.5208 149.856 20.7208 150.88 20.7368 152.416H18.8808C18.8648 151.744 18.4168 151.312 17.6648 151.312C16.8968 151.312 16.4488 151.664 16.4488 152.256C16.4488 152.704 16.8008 152.992 17.4728 153.152L18.8968 153.488C20.2248 153.792 20.8968 154.4 20.8968 155.616C20.8968 157.216 19.5368 158.208 17.5848 158.208C15.6168 158.208 14.3688 157.152 14.3688 155.6ZM25.071 158H23.119V151.728H21.599V150.096H23.119V147.632H25.071V150.096H26.607V151.728H25.071V158ZM30.1256 158.208C28.4456 158.208 27.4216 157.232 27.4216 155.744C27.4216 154.288 28.4776 153.376 30.3496 153.232L32.7176 153.056V152.88C32.7176 151.808 32.0776 151.376 31.0856 151.376C29.9336 151.376 29.2936 151.856 29.2936 152.688H27.6296C27.6296 150.976 29.0376 149.856 31.1816 149.856C33.3096 149.856 34.6216 151.008 34.6216 153.2V158H32.9096L32.7656 156.832C32.4296 157.648 31.3576 158.208 30.1256 158.208ZM30.7656 156.736C31.9656 156.736 32.7336 156.016 32.7336 154.8V154.384L31.0856 154.512C29.8696 154.624 29.4056 155.024 29.4056 155.664C29.4056 156.384 29.8856 156.736 30.7656 156.736ZM38.5073 158H36.5713V146.096H38.5073V158ZM42.5229 158H40.5869V146.096H42.5229V158ZM46.9225 158.208C45.2425 158.208 44.2185 157.232 44.2185 155.744C44.2185 154.288 45.2745 153.376 47.1465 153.232L49.5145 153.056V152.88C49.5145 151.808 48.8745 151.376 47.8825 151.376C46.7305 151.376 46.0905 151.856 46.0905 152.688H44.4265C44.4265 150.976 45.8345 149.856 47.9785 149.856C50.1065 149.856 51.4185 151.008 51.4185 153.2V158H49.7065L49.5625 156.832C49.2265 157.648 48.1545 158.208 46.9225 158.208ZM47.5625 156.736C48.7625 156.736 49.5305 156.016 49.5305 154.8V154.384L47.8825 154.512C46.6665 154.624 46.2025 155.024 46.2025 155.664C46.2025 156.384 46.6825 156.736 47.5625 156.736ZM55.9148 158H53.9628V151.728H52.4428V150.096H53.9628V147.632H55.9148V150.096H57.4508V151.728H55.9148V158ZM59.6403 148.512C58.9683 148.512 58.4403 147.984 58.4403 147.328C58.4403 146.672 58.9683 146.16 59.6403 146.16C60.2803 146.16 60.8083 146.672 60.8083 147.328C60.8083 147.984 60.2803 148.512 59.6403 148.512ZM58.6643 158V150.096H60.6163V158H58.6643ZM62.169 154.032C62.169 151.568 63.945 149.872 66.393 149.872C68.841 149.872 70.617 151.568 70.617 154.032C70.617 156.496 68.841 158.192 66.393 158.192C63.945 158.192 62.169 156.496 62.169 154.032ZM64.121 154.032C64.121 155.472 65.049 156.448 66.393 156.448C67.737 156.448 68.665 155.472 68.665 154.032C68.665 152.592 67.737 151.616 66.393 151.616C65.049 151.616 64.121 152.592 64.121 154.032ZM74.1163 158H72.1643V150.096H73.9723L74.1323 151.12C74.6283 150.32 75.5883 149.856 76.6603 149.856C78.6443 149.856 79.6683 151.088 79.6683 153.136V158H77.7163V153.6C77.7163 152.272 77.0603 151.632 76.0523 151.632C74.8523 151.632 74.1163 152.464 74.1163 153.744V158ZM80.8844 155.6H82.7404C82.7564 156.288 83.2684 156.72 84.1644 156.72C85.0764 156.72 85.5724 156.352 85.5724 155.776C85.5724 155.376 85.3644 155.088 84.6604 154.928L83.2364 154.592C81.8124 154.272 81.1244 153.6 81.1244 152.336C81.1244 150.784 82.4364 149.856 84.2604 149.856C86.0364 149.856 87.2364 150.88 87.2524 152.416H85.3964C85.3804 151.744 84.9324 151.312 84.1804 151.312C83.4124 151.312 82.9644 151.664 82.9644 152.256C82.9644 152.704 83.3164 152.992 83.9884 153.152L85.4124 153.488C86.7404 153.792 87.4124 154.4 87.4124 155.616C87.4124 157.216 86.0524 158.208 84.1004 158.208C82.1324 158.208 80.8844 157.152 80.8844 155.6Z" fill="#F16336"/>
<path d="M35.392 236.936L2.944 237V230.856L18.24 217.928C24.576 212.552 26.688 209.48 26.688 205C26.688 199.688 23.808 196.68 18.88 196.68C13.76 196.68 10.56 200.264 10.496 206.28H2.368C2.432 196.04 8.96 189.384 18.88 189.384C28.864 189.384 35.072 195.08 35.072 204.552C35.072 211.08 31.488 216.008 24.384 222.088L15.936 229.32H35.392V236.936ZM50.541 197.576H40.301V190.216H58.413V237H50.541V197.576ZM66.377 213.704C66.377 199.176 74.185 189.32 86.153 189.32C98.121 189.32 105.993 199.176 105.993 213.704C105.993 228.168 98.569 237.832 86.153 237.832C73.737 237.832 66.377 228.168 66.377 213.704ZM74.441 213.704C74.441 224.52 78.793 230.6 86.153 230.6C93.577 230.6 97.929 224.52 97.929 213.704C97.929 202.632 93.577 196.552 86.153 196.552C78.793 196.552 74.441 202.632 74.441 213.704ZM113.87 212.168H126.606V199.432H133.134V212.168H145.87V218.696H133.134V231.496H126.606V218.696H113.87V212.168Z" fill="#F4F4F1"/>
<path d="M187.344 148H185.296V136.304H189.76C192.416 136.304 193.968 137.648 193.968 139.952C193.968 141.52 193.232 142.64 191.856 143.2L194.08 148H191.84L189.856 143.632H187.344V148ZM187.344 138.128V141.824H189.76C191.056 141.824 191.824 141.136 191.824 139.952C191.824 138.784 191.056 138.128 189.76 138.128H187.344ZM198.7 148.208C196.348 148.208 194.7 146.496 194.7 144.048C194.7 141.568 196.316 139.856 198.636 139.856C201.004 139.856 202.508 141.44 202.508 143.904V144.496L196.556 144.512C196.7 145.904 197.436 146.608 198.732 146.608C199.804 146.608 200.508 146.192 200.732 145.44H202.54C202.204 147.168 200.764 148.208 198.7 148.208ZM198.652 141.456C197.5 141.456 196.796 142.08 196.604 143.264H200.572C200.572 142.176 199.82 141.456 198.652 141.456ZM203.463 145.6H205.319C205.335 146.288 205.847 146.72 206.743 146.72C207.655 146.72 208.151 146.352 208.151 145.776C208.151 145.376 207.943 145.088 207.239 144.928L205.815 144.592C204.391 144.272 203.703 143.6 203.703 142.336C203.703 140.784 205.015 139.856 206.839 139.856C208.615 139.856 209.815 140.88 209.831 142.416H207.975C207.959 141.744 207.511 141.312 206.759 141.312C205.991 141.312 205.543 141.664 205.543 142.256C205.543 142.704 205.895 142.992 206.567 143.152L207.991 143.488C209.319 143.792 209.991 144.4 209.991 145.616C209.991 147.216 208.631 148.208 206.679 148.208C204.711 148.208 203.463 147.152 203.463 145.6ZM212.453 138.512C211.781 138.512 211.253 137.984 211.253 137.328C211.253 136.672 211.781 136.16 212.453 136.16C213.093 136.16 213.621 136.672 213.621 137.328C213.621 137.984 213.093 138.512 212.453 138.512ZM211.477 148V140.096H213.429V148H211.477ZM218.694 148.208C216.406 148.208 214.982 146.528 214.982 144.08C214.982 141.616 216.422 139.856 218.806 139.856C219.91 139.856 220.886 140.32 221.382 141.104V136.096H223.318V148H221.526L221.398 146.768C220.918 147.68 219.894 148.208 218.694 148.208ZM219.126 146.416C220.486 146.416 221.366 145.44 221.366 144.016C221.366 142.592 220.486 141.6 219.126 141.6C217.766 141.6 216.934 142.608 216.934 144.016C216.934 145.424 217.766 146.416 219.126 146.416ZM228.888 148.208C226.536 148.208 224.888 146.496 224.888 144.048C224.888 141.568 226.504 139.856 228.824 139.856C231.192 139.856 232.696 141.44 232.696 143.904V144.496L226.744 144.512C226.888 145.904 227.624 146.608 228.92 146.608C229.992 146.608 230.696 146.192 230.92 145.44H232.728C232.392 147.168 230.952 148.208 228.888 148.208ZM228.84 141.456C227.688 141.456 226.984 142.08 226.792 143.264H230.76C230.76 142.176 230.008 141.456 228.84 141.456ZM236.21 148H234.258V140.096H236.066L236.226 141.12C236.722 140.32 237.682 139.856 238.754 139.856C240.738 139.856 241.762 141.088 241.762 143.136V148H239.81V143.6C239.81 142.272 239.154 141.632 238.146 141.632C236.946 141.632 236.21 142.464 236.21 143.744V148ZM243.216 144.032C243.216 141.584 244.832 139.856 247.168 139.856C249.328 139.856 250.8 141.056 251.008 142.96H249.056C248.832 142.064 248.176 141.6 247.248 141.6C246 141.6 245.168 142.544 245.168 144.032C245.168 145.52 245.936 146.448 247.184 146.448C248.16 146.448 248.848 145.968 249.056 145.104H251.024C250.784 146.944 249.248 148.208 247.184 148.208C244.784 148.208 243.216 146.544 243.216 144.032ZM253.453 138.512C252.781 138.512 252.253 137.984 252.253 137.328C252.253 136.672 252.781 136.16 253.453 136.16C254.093 136.16 254.621 136.672 254.621 137.328C254.621 137.984 254.093 138.512 253.453 138.512ZM252.477 148V140.096H254.429V148H252.477ZM258.798 148.208C257.118 148.208 256.094 147.232 256.094 145.744C256.094 144.288 257.15 143.376 259.022 143.232L261.39 143.056V142.88C261.39 141.808 260.75 141.376 259.758 141.376C258.606 141.376 257.966 141.856 257.966 142.688H256.302C256.302 140.976 257.71 139.856 259.854 139.856C261.982 139.856 263.294 141.008 263.294 143.2V148H261.582L261.438 146.832C261.102 147.648 260.03 148.208 258.798 148.208ZM259.438 146.736C260.638 146.736 261.406 146.016 261.406 144.8V144.384L259.758 144.512C258.542 144.624 258.078 145.024 258.078 145.664C258.078 146.384 258.558 146.736 259.438 146.736ZM267.179 148H265.243V136.096H267.179V148ZM268.619 145.6H270.475C270.491 146.288 271.003 146.72 271.899 146.72C272.811 146.72 273.307 146.352 273.307 145.776C273.307 145.376 273.099 145.088 272.395 144.928L270.971 144.592C269.547 144.272 268.859 143.6 268.859 142.336C268.859 140.784 270.171 139.856 271.995 139.856C273.771 139.856 274.971 140.88 274.987 142.416H273.131C273.115 141.744 272.667 141.312 271.915 141.312C271.147 141.312 270.699 141.664 270.699 142.256C270.699 142.704 271.051 142.992 271.723 143.152L273.147 143.488C274.475 143.792 275.147 144.4 275.147 145.616C275.147 147.216 273.787 148.208 271.835 148.208C269.867 148.208 268.619 147.152 268.619 145.6Z" fill="#F16336"/>
<path d="M202.88 237.768C193.088 237.768 186.624 231.496 186.624 222.024H194.752C194.752 227.336 197.888 230.472 203.072 230.472C208.576 230.472 212.096 226.888 212.096 221.192C212.096 215.752 208.832 212.04 203.2 212.04C199.616 212.04 196.352 213.832 194.688 216.264L187.456 214.728L193.216 190.216H217.6V197.768H199.104L196.608 207.496C198.848 206.024 201.664 205.192 204.864 205.192C214.208 205.192 220.416 211.528 220.416 220.744C220.416 230.856 213.312 237.768 202.88 237.768ZM232.979 197.576H222.739V190.216H240.851V237H232.979V197.576ZM248.815 213.704C248.815 199.176 256.623 189.32 268.591 189.32C280.559 189.32 288.431 199.176 288.431 213.704C288.431 228.168 281.007 237.832 268.591 237.832C256.175 237.832 248.815 228.168 248.815 213.704ZM256.879 213.704C256.879 224.52 261.231 230.6 268.591 230.6C276.015 230.6 280.367 224.52 280.367 213.704C280.367 202.632 276.015 196.552 268.591 196.552C261.231 196.552 256.879 202.632 256.879 213.704ZM296.308 212.168H309.044V199.432H315.572V212.168H328.308V218.696H315.572V231.496H309.044V218.696H296.308V212.168Z" fill="#F4F4F1"/>
<path d="M373.92 143.968H371.344V148H369.296V136.304H373.92C376.272 136.304 377.792 137.84 377.792 140.128C377.792 142.384 376.256 143.968 373.92 143.968ZM373.52 138.128H371.344V142.144H373.488C374.896 142.144 375.648 141.392 375.648 140.112C375.648 138.832 374.88 138.128 373.52 138.128ZM378.372 144.032C378.372 141.568 380.148 139.872 382.596 139.872C385.044 139.872 386.82 141.568 386.82 144.032C386.82 146.496 385.044 148.192 382.596 148.192C380.148 148.192 378.372 146.496 378.372 144.032ZM380.324 144.032C380.324 145.472 381.252 146.448 382.596 146.448C383.94 146.448 384.868 145.472 384.868 144.032C384.868 142.592 383.94 141.616 382.596 141.616C381.252 141.616 380.324 142.592 380.324 144.032ZM389.721 148L387.161 140.096H389.193L390.233 143.488C390.409 144.112 390.569 144.8 390.713 145.536C390.857 144.768 391.001 144.272 391.257 143.488L392.345 140.096H394.329L395.385 143.488C395.481 143.808 395.801 144.992 395.897 145.52C396.025 144.928 396.281 143.984 396.425 143.488L397.481 140.096H399.545L396.809 148H394.985L393.897 144.576C393.577 143.536 393.401 142.784 393.337 142.384C393.257 142.752 393.113 143.312 392.713 144.608L391.625 148H389.721ZM403.872 148.208C401.52 148.208 399.872 146.496 399.872 144.048C399.872 141.568 401.488 139.856 403.808 139.856C406.176 139.856 407.68 141.44 407.68 143.904V144.496L401.728 144.512C401.872 145.904 402.608 146.608 403.904 146.608C404.976 146.608 405.68 146.192 405.904 145.44H407.712C407.376 147.168 405.936 148.208 403.872 148.208ZM403.824 141.456C402.672 141.456 401.968 142.08 401.776 143.264H405.744C405.744 142.176 404.992 141.456 403.824 141.456ZM414.202 140.064V141.872H413.482C412.074 141.872 411.194 142.624 411.194 144.16V148H409.242V140.112H411.082L411.194 141.264C411.53 140.48 412.282 139.952 413.338 139.952C413.61 139.952 413.882 139.984 414.202 140.064ZM424.748 143.968H422.172V148H420.124V136.304H424.748C427.1 136.304 428.62 137.84 428.62 140.128C428.62 142.384 427.084 143.968 424.748 143.968ZM424.348 138.128H422.172V142.144H424.316C425.724 142.144 426.476 141.392 426.476 140.112C426.476 138.832 425.708 138.128 424.348 138.128ZM435.015 140.064V141.872H434.295C432.887 141.872 432.007 142.624 432.007 144.16V148H430.055V140.112H431.895L432.007 141.264C432.343 140.48 433.095 139.952 434.151 139.952C434.423 139.952 434.695 139.984 435.015 140.064ZM435.607 144.032C435.607 141.568 437.383 139.872 439.831 139.872C442.279 139.872 444.055 141.568 444.055 144.032C444.055 146.496 442.279 148.192 439.831 148.192C437.383 148.192 435.607 146.496 435.607 144.032ZM437.559 144.032C437.559 145.472 438.487 146.448 439.831 146.448C441.175 146.448 442.103 145.472 442.103 144.032C442.103 142.592 441.175 141.616 439.831 141.616C438.487 141.616 437.559 142.592 437.559 144.032ZM448.85 148.208C446.562 148.208 445.138 146.528 445.138 144.08C445.138 141.616 446.578 139.856 448.962 139.856C450.066 139.856 451.042 140.32 451.538 141.104V136.096H453.474V148H451.682L451.554 146.768C451.074 147.68 450.05 148.208 448.85 148.208ZM449.282 146.416C450.642 146.416 451.522 145.44 451.522 144.016C451.522 142.592 450.642 141.6 449.282 141.6C447.922 141.6 447.09 142.608 447.09 144.016C447.09 145.424 447.922 146.416 449.282 146.416ZM460.868 140.096H462.82V148H461.012L460.868 146.944C460.388 147.696 459.364 148.208 458.308 148.208C456.484 148.208 455.412 146.976 455.412 145.04V140.096H457.364V144.352C457.364 145.856 457.956 146.464 459.044 146.464C460.276 146.464 460.868 145.744 460.868 144.24V140.096ZM464.216 144.032C464.216 141.584 465.832 139.856 468.168 139.856C470.328 139.856 471.8 141.056 472.008 142.96H470.056C469.832 142.064 469.176 141.6 468.248 141.6C467 141.6 466.168 142.544 466.168 144.032C466.168 145.52 466.936 146.448 468.184 146.448C469.16 146.448 469.848 145.968 470.056 145.104H472.024C471.784 146.944 470.248 148.208 468.184 148.208C465.784 148.208 464.216 146.544 464.216 144.032ZM477.013 148.208C474.661 148.208 473.013 146.496 473.013 144.048C473.013 141.568 474.629 139.856 476.949 139.856C479.317 139.856 480.821 141.44 480.821 143.904V144.496L474.869 144.512C475.013 145.904 475.749 146.608 477.045 146.608C478.117 146.608 478.821 146.192 479.045 145.44H480.853C480.517 147.168 479.077 148.208 477.013 148.208ZM476.965 141.456C475.813 141.456 475.109 142.08 474.917 143.264H478.885C478.885 142.176 478.133 141.456 476.965 141.456ZM487.343 140.064V141.872H486.623C485.215 141.872 484.335 142.624 484.335 144.16V148H482.383V140.112H484.223L484.335 141.264C484.671 140.48 485.423 139.952 486.479 139.952C486.751 139.952 487.023 139.984 487.343 140.064Z" fill="#F16336"/>
<path d="M380.416 197.576H370.176V190.216H388.288V237H380.416V197.576ZM395.751 223.752C395.751 218.184 398.887 213.704 403.751 211.848C399.655 209.992 397.415 206.472 397.415 201.928C397.415 194.504 404.007 189.384 413.671 189.384C423.271 189.384 429.735 194.44 429.735 202.056C429.735 206.6 427.431 210.12 423.271 211.848C428.199 213.576 431.399 218.12 431.399 223.752C431.399 232.2 424.423 237.768 413.543 237.768C402.727 237.768 395.751 232.264 395.751 223.752ZM404.839 202.632C404.839 206.536 408.231 209.032 413.543 209.032C418.791 209.032 422.119 206.6 422.119 202.696C422.119 198.792 418.791 196.36 413.543 196.36C408.231 196.36 404.839 198.792 404.839 202.632ZM403.751 223.176C403.751 227.72 407.527 230.536 413.607 230.536C419.559 230.536 423.335 227.72 423.335 223.176C423.335 218.632 419.559 215.816 413.543 215.816C407.527 215.816 403.751 218.632 403.751 223.176ZM441.803 223.8C438.503 223.8 436.423 226.24 436.423 229.9C436.423 233.62 438.623 235.88 441.843 235.88C444.243 235.88 446.583 234.72 446.583 231.28V230.54H441.403V229.26H447.943V237.02H446.803L446.663 234.74C445.903 236.16 444.103 237.24 441.783 237.24C437.723 237.24 434.923 234.32 434.923 229.9C434.923 225.52 437.723 222.44 441.823 222.44C444.843 222.44 447.183 224.16 447.743 226.76H446.183C445.583 224.8 443.903 223.8 441.803 223.8ZM453.349 237L449.089 222.68H450.589L453.489 232.52C453.689 233.22 453.869 233.94 454.049 234.88C454.289 233.84 454.489 233.22 454.709 232.52L457.829 222.68H459.329L462.449 232.52C462.669 233.24 462.869 233.96 463.089 234.88C463.309 233.78 463.489 233.08 463.649 232.54L466.609 222.68H468.069L463.769 237H462.409L458.569 224.84L454.729 237H453.349Z" fill="#F4F4F1"/>
<path d="M526.24 139.192C522.832 139.192 520.624 136.824 520.624 133.16C520.624 129.528 522.912 127.112 526.336 127.112C529.104 127.112 531.168 128.728 531.568 131.24H529.408C529.008 129.88 527.84 129.08 526.288 129.08C524.128 129.08 522.768 130.648 522.768 133.144C522.768 135.624 524.144 137.224 526.288 137.224C527.872 137.224 529.088 136.392 529.472 135.096H531.6C531.152 137.56 529.008 139.192 526.24 139.192ZM534.125 129.512C533.453 129.512 532.925 128.984 532.925 128.328C532.925 127.672 533.453 127.16 534.125 127.16C534.765 127.16 535.293 127.672 535.293 128.328C535.293 128.984 534.765 129.512 534.125 129.512ZM533.149 139V131.096H535.101V139H533.149ZM539.805 139H537.853V132.728H536.333V131.096H537.853V128.632H539.805V131.096H541.341V132.728H539.805V139ZM541.867 142.664V141.032H543.035C543.803 141.032 544.283 140.856 544.619 139.928L544.843 139.336L541.659 131.096H543.723L545.755 136.856L547.899 131.096H549.915L546.043 140.76C545.451 142.232 544.619 142.84 543.323 142.84C542.779 142.84 542.299 142.776 541.867 142.664ZM553.691 128.648C553.691 129.992 552.795 131.032 551.515 131.192V130.424C552.203 130.296 552.699 129.864 552.699 129.304C552.571 129.352 552.427 129.384 552.251 129.384C551.675 129.384 551.211 128.984 551.211 128.28C551.211 127.576 551.691 127.08 552.395 127.08C553.147 127.08 553.691 127.688 553.691 128.648ZM554.244 136.6H556.1C556.116 137.288 556.628 137.72 557.524 137.72C558.436 137.72 558.932 137.352 558.932 136.776C558.932 136.376 558.724 136.088 558.02 135.928L556.596 135.592C555.172 135.272 554.484 134.6 554.484 133.336C554.484 131.784 555.796 130.856 557.62 130.856C559.396 130.856 560.596 131.88 560.612 133.416H558.756C558.74 132.744 558.292 132.312 557.54 132.312C556.772 132.312 556.324 132.664 556.324 133.256C556.324 133.704 556.676 133.992 557.348 134.152L558.772 134.488C560.1 134.792 560.772 135.4 560.772 136.616C560.772 138.216 559.412 139.208 557.46 139.208C555.492 139.208 554.244 138.152 554.244 136.6ZM528.56 158H521.296V146.304H528.56V148.192H523.344V151.2H528.016V153.008H523.344V156.112H528.56V158ZM532.46 158H530.524V146.096H532.46V158ZM538.044 158.208C535.692 158.208 534.044 156.496 534.044 154.048C534.044 151.568 535.66 149.856 537.98 149.856C540.348 149.856 541.852 151.44 541.852 153.904V154.496L535.9 154.512C536.044 155.904 536.78 156.608 538.076 156.608C539.148 156.608 539.852 156.192 540.076 155.44H541.884C541.548 157.168 540.108 158.208 538.044 158.208ZM537.996 151.456C536.844 151.456 536.14 152.08 535.948 153.264H539.916C539.916 152.176 539.164 151.456 537.996 151.456ZM542.95 154.032C542.95 151.584 544.566 149.856 546.902 149.856C549.062 149.856 550.534 151.056 550.742 152.96H548.79C548.566 152.064 547.91 151.6 546.982 151.6C545.734 151.6 544.902 152.544 544.902 154.032C544.902 155.52 545.67 156.448 546.918 156.448C547.894 156.448 548.582 155.968 548.79 155.104H550.758C550.518 156.944 548.982 158.208 546.918 158.208C544.518 158.208 542.95 156.544 542.95 154.032ZM554.899 158H552.947V151.728H551.427V150.096H552.947V147.632H554.899V150.096H556.435V151.728H554.899V158ZM562.609 150.064V151.872H561.889C560.481 151.872 559.601 152.624 559.601 154.16V158H557.649V150.112H559.489L559.601 151.264C559.937 150.48 560.689 149.952 561.745 149.952C562.017 149.952 562.289 149.984 562.609 150.064ZM564.906 148.512C564.234 148.512 563.706 147.984 563.706 147.328C563.706 146.672 564.234 146.16 564.906 146.16C565.546 146.16 566.074 146.672 566.074 147.328C566.074 147.984 565.546 148.512 564.906 148.512ZM563.93 158V150.096H565.882V158H563.93ZM567.435 154.032C567.435 151.584 569.051 149.856 571.387 149.856C573.547 149.856 575.019 151.056 575.227 152.96H573.275C573.051 152.064 572.395 151.6 571.467 151.6C570.219 151.6 569.387 152.544 569.387 154.032C569.387 155.52 570.155 156.448 571.403 156.448C572.379 156.448 573.067 155.968 573.275 155.104H575.243C575.003 156.944 573.467 158.208 571.403 158.208C569.003 158.208 567.435 156.544 567.435 154.032ZM577.672 148.512C577 148.512 576.472 147.984 576.472 147.328C576.472 146.672 577 146.16 577.672 146.16C578.312 146.16 578.84 146.672 578.84 147.328C578.84 147.984 578.312 148.512 577.672 148.512ZM576.696 158V150.096H578.648V158H576.696ZM583.352 158H581.4V151.728H579.88V150.096H581.4V147.632H583.352V150.096H584.888V151.728H583.352V158ZM585.414 161.664V160.032H586.582C587.35 160.032 587.83 159.856 588.166 158.928L588.39 158.336L585.206 150.096H587.27L589.302 155.856L591.446 150.096H593.462L589.59 159.76C588.998 161.232 588.166 161.84 586.87 161.84C586.326 161.84 585.846 161.776 585.414 161.664ZM598.499 149.568C598.499 147.52 600.195 146.096 602.659 146.096C605.027 146.096 606.531 147.408 606.595 149.52H604.547C604.499 148.512 603.779 147.92 602.627 147.92C601.363 147.92 600.547 148.528 600.547 149.504C600.547 150.336 600.995 150.8 601.971 151.024L603.811 151.424C605.811 151.856 606.787 152.88 606.787 154.624C606.787 156.8 605.091 158.208 602.515 158.208C600.019 158.208 598.387 156.88 598.339 154.784H600.387C600.403 155.776 601.203 156.368 602.515 156.368C603.875 156.368 604.739 155.776 604.739 154.8C604.739 154.016 604.339 153.552 603.379 153.344L601.523 152.928C599.539 152.496 598.499 151.36 598.499 149.568ZM613.712 150.096H615.664V158H613.856L613.712 156.944C613.232 157.696 612.208 158.208 611.152 158.208C609.328 158.208 608.256 156.976 608.256 155.04V150.096H610.208V154.352C610.208 155.856 610.8 156.464 611.888 156.464C613.12 156.464 613.712 155.744 613.712 154.24V150.096ZM617.68 161.664V150.096H619.488L619.616 151.296C620.096 150.384 621.136 149.856 622.336 149.856C624.56 149.856 626.032 151.472 626.032 153.952C626.032 156.416 624.688 158.208 622.336 158.208C621.152 158.208 620.128 157.744 619.632 156.944V161.664H617.68ZM619.648 154.048C619.648 155.472 620.528 156.448 621.872 156.448C623.248 156.448 624.064 155.456 624.064 154.048C624.064 152.64 623.248 151.632 621.872 151.632C620.528 151.632 619.648 152.624 619.648 154.048ZM627.586 161.664V150.096H629.394L629.522 151.296C630.002 150.384 631.042 149.856 632.242 149.856C634.466 149.856 635.938 151.472 635.938 153.952C635.938 156.416 634.594 158.208 632.242 158.208C631.058 158.208 630.034 157.744 629.538 156.944V161.664H627.586ZM629.554 154.048C629.554 155.472 630.434 156.448 631.778 156.448C633.154 156.448 633.97 155.456 633.97 154.048C633.97 152.64 633.154 151.632 631.778 151.632C630.434 151.632 629.554 152.624 629.554 154.048ZM639.46 158H637.524V146.096H639.46V158ZM640.82 161.664V160.032H641.988C642.756 160.032 643.236 159.856 643.572 158.928L643.796 158.336L640.612 150.096H642.676L644.708 155.856L646.852 150.096H648.868L644.996 159.76C644.404 161.232 643.572 161.84 642.276 161.84C641.732 161.84 641.252 161.776 640.82 161.664Z" fill="#F16336"/>
<path d="M532.416 197.576H522.176V190.216H540.288V237H532.416V197.576ZM563.943 237.768C554.151 237.768 547.687 231.496 547.687 222.024H555.815C555.815 227.336 558.951 230.472 564.135 230.472C569.639 230.472 573.159 226.888 573.159 221.192C573.159 215.752 569.895 212.04 564.263 212.04C560.679 212.04 557.415 213.832 555.751 216.264L548.519 214.728L554.279 190.216H578.663V197.768H560.167L557.671 207.496C559.911 206.024 562.727 205.192 565.927 205.192C575.271 205.192 581.479 211.528 581.479 220.744C581.479 230.856 574.375 237.768 563.943 237.768ZM610.062 201.608C610.062 208.84 604.942 213.896 597.838 213.896C590.734 213.896 585.614 208.84 585.614 201.608C585.614 194.44 590.734 189.32 597.838 189.32C604.942 189.32 610.062 194.44 610.062 201.608ZM635.726 190.28L600.206 237H592.398L627.918 190.28H635.726ZM603.854 201.608C603.854 197.896 601.422 195.336 597.838 195.336C594.254 195.336 591.885 197.896 591.885 201.608C591.885 205.32 594.318 207.88 597.838 207.88C601.422 207.88 603.854 205.32 603.854 201.608ZM642.574 225.544C642.574 232.712 637.518 237.832 630.414 237.832C623.246 237.832 618.19 232.712 618.19 225.544C618.19 218.376 623.246 213.256 630.414 213.256C637.518 213.256 642.574 218.376 642.574 225.544ZM636.366 225.544C636.366 221.832 633.934 219.272 630.414 219.272C626.83 219.272 624.398 221.832 624.398 225.544C624.398 229.256 626.83 231.816 630.414 231.816C633.934 231.816 636.366 229.256 636.366 225.544Z" fill="#F4F4F1"/>
<path d="M1.512 346.648V344.632H8.832V346.648H1.512ZM57.2814 339.328C57.2814 336.352 59.6814 334.336 63.2574 334.336C66.5694 334.336 68.7054 336.184 68.8974 339.184H66.5214C66.4014 337.456 65.1774 336.448 63.2334 336.448C61.0494 336.448 59.6334 337.552 59.6334 339.256C59.6334 340.648 60.4254 341.488 62.0574 341.872L64.9134 342.544C67.7454 343.192 69.1854 344.728 69.1854 347.176C69.1854 350.296 66.7614 352.288 63.0654 352.288C59.5374 352.288 57.1854 350.44 57.0414 347.464H59.4414C59.4894 349.12 60.8814 350.176 63.0654 350.176C65.3694 350.176 66.8334 349.096 66.8334 347.368C66.8334 346 66.0894 345.136 64.4334 344.752L61.5774 344.104C58.7454 343.456 57.2814 341.824 57.2814 339.328ZM75.189 352.288C72.669 352.288 71.181 350.872 71.181 348.736C71.181 346.576 72.789 345.232 75.549 345.016L79.245 344.728V344.392C79.245 342.424 78.069 341.728 76.485 341.728C74.589 341.728 73.509 342.568 73.509 343.984H71.541C71.541 341.536 73.557 339.928 76.581 339.928C79.485 339.928 81.453 341.464 81.453 344.632V352H79.533L79.293 350.104C78.693 351.448 77.085 352.288 75.189 352.288ZM75.837 350.536C77.973 350.536 79.269 349.144 79.269 346.936V346.312L76.269 346.552C74.277 346.744 73.461 347.512 73.461 348.664C73.461 349.912 74.373 350.536 75.837 350.536ZM83.1681 357.256V355.408H84.6801C85.7601 355.408 86.6241 355.24 87.1761 353.752L87.5841 352.624L82.8561 340.264H85.2321L88.6401 349.72L92.1201 340.264H94.4481L88.9041 354.64C88.1121 356.656 86.9361 357.496 85.1361 357.496C84.3921 357.496 83.7681 357.4 83.1681 357.256ZM102.068 345.832C102.068 342.52 104.204 339.928 107.612 339.928C109.508 339.928 110.972 340.792 111.716 342.256L111.884 340.264H113.9V351.52C113.9 355.216 111.62 357.568 108.02 357.568C104.828 357.568 102.644 355.768 102.212 352.792H104.468C104.756 354.52 106.052 355.528 108.02 355.528C110.228 355.528 111.668 354.088 111.668 351.856V349.504C110.9 350.872 109.364 351.688 107.516 351.688C104.18 351.688 102.068 349.12 102.068 345.832ZM104.324 345.784C104.324 347.992 105.692 349.72 107.9 349.72C110.18 349.72 111.572 348.088 111.572 345.784C111.572 343.528 110.228 341.896 107.924 341.896C105.668 341.896 104.324 343.624 104.324 345.784ZM116.387 346.12C116.387 342.496 118.979 339.952 122.507 339.952C126.011 339.952 128.603 342.496 128.603 346.12C128.603 349.744 126.011 352.288 122.507 352.288C118.979 352.288 116.387 349.744 116.387 346.12ZM118.667 346.12C118.667 348.568 120.227 350.272 122.507 350.272C124.763 350.272 126.347 348.568 126.347 346.12C126.347 343.672 124.763 341.968 122.507 341.968C120.227 341.968 118.667 343.672 118.667 346.12ZM130.333 346.12C130.333 342.496 132.925 339.952 136.453 339.952C139.957 339.952 142.549 342.496 142.549 346.12C142.549 349.744 139.957 352.288 136.453 352.288C132.925 352.288 130.333 349.744 130.333 346.12ZM132.613 346.12C132.613 348.568 134.173 350.272 136.453 350.272C138.709 350.272 140.293 348.568 140.293 346.12C140.293 343.672 138.709 341.968 136.453 341.968C134.173 341.968 132.613 343.672 132.613 346.12ZM149.75 352.288C146.342 352.288 144.278 349.744 144.278 346.168C144.278 342.568 146.366 339.928 149.846 339.928C151.646 339.928 153.158 340.72 153.95 342.16V334.336H156.182V352H154.166L153.974 349.864C153.206 351.472 151.622 352.288 149.75 352.288ZM150.206 350.248C152.51 350.248 153.926 348.544 153.926 346.096C153.926 343.696 152.51 341.968 150.206 341.968C147.902 341.968 146.558 343.696 146.558 346.096C146.558 348.52 147.902 350.248 150.206 350.248ZM161.477 352H159.437V334.336H161.693V342.28C162.461 340.744 164.045 339.928 165.965 339.928C169.325 339.928 171.341 342.568 171.341 346.192C171.341 349.744 169.229 352.288 165.821 352.288C163.973 352.288 162.413 351.472 161.645 349.864L161.477 352ZM161.717 346.096C161.717 348.544 163.109 350.248 165.413 350.248C167.717 350.248 169.085 348.52 169.085 346.096C169.085 343.696 167.717 341.968 165.413 341.968C163.109 341.968 161.717 343.696 161.717 346.096ZM172.301 357.256V355.408H173.813C174.893 355.408 175.757 355.24 176.309 353.752L176.717 352.624L171.989 340.264H174.365L177.773 349.72L181.253 340.264H183.581L178.037 354.64C177.245 356.656 176.069 357.496 174.269 357.496C173.525 357.496 172.901 357.4 172.301 357.256ZM190.001 352.288C186.545 352.288 184.169 349.792 184.169 346.144C184.169 342.472 186.497 339.928 189.905 339.928C193.241 339.928 195.425 342.232 195.425 345.712V346.552L186.353 346.576C186.521 349.048 187.817 350.416 190.049 350.416C191.801 350.416 192.953 349.696 193.337 348.352H195.449C194.873 350.872 192.905 352.288 190.001 352.288ZM189.905 341.824C187.937 341.824 186.689 343 186.401 345.064H193.169C193.169 343.12 191.897 341.824 189.905 341.824ZM207.819 352H205.563V342.16H203.259V340.264H205.563V336.592H207.819V340.264H210.123V342.16H207.819V352ZM211.262 346.12C211.262 342.496 213.854 339.952 217.382 339.952C220.886 339.952 223.478 342.496 223.478 346.12C223.478 349.744 220.886 352.288 217.382 352.288C213.854 352.288 211.262 349.744 211.262 346.12ZM213.542 346.12C213.542 348.568 215.102 350.272 217.382 350.272C219.638 350.272 221.222 348.568 221.222 346.12C221.222 343.672 219.638 341.968 217.382 341.968C215.102 341.968 213.542 343.672 213.542 346.12ZM231.41 357.256V355.408H232.922C234.002 355.408 234.866 355.24 235.418 353.752L235.826 352.624L231.098 340.264H233.474L236.882 349.72L240.362 340.264H242.69L237.146 354.64C236.354 356.656 235.178 357.496 233.378 357.496C232.634 357.496 232.01 357.4 231.41 357.256ZM243.278 346.12C243.278 342.496 245.87 339.952 249.398 339.952C252.902 339.952 255.494 342.496 255.494 346.12C255.494 349.744 252.902 352.288 249.398 352.288C245.87 352.288 243.278 349.744 243.278 346.12ZM245.558 346.12C245.558 348.568 247.118 350.272 249.398 350.272C251.654 350.272 253.238 348.568 253.238 346.12C253.238 343.672 251.654 341.968 249.398 341.968C247.118 341.968 245.558 343.672 245.558 346.12ZM265.822 340.264H268.054V352H266.038L265.798 350.224C265.126 351.448 263.566 352.288 261.838 352.288C259.102 352.288 257.566 350.44 257.566 347.56V340.264H259.822V346.816C259.822 349.336 260.902 350.296 262.63 350.296C264.694 350.296 265.822 348.976 265.822 346.456V340.264ZM278.047 340.168V342.232H277.039C274.903 342.232 273.583 343.528 273.583 345.784V352H271.327V340.288H273.439L273.583 342.064C274.063 340.84 275.239 340.024 276.847 340.024C277.255 340.024 277.591 340.072 278.047 340.168ZM291.79 352.288C288.334 352.288 285.958 349.792 285.958 346.144C285.958 342.472 288.286 339.928 291.694 339.928C295.03 339.928 297.214 342.232 297.214 345.712V346.552L288.142 346.576C288.31 349.048 289.606 350.416 291.838 350.416C293.59 350.416 294.742 349.696 295.126 348.352H297.238C296.662 350.872 294.694 352.288 291.79 352.288ZM291.694 341.824C289.726 341.824 288.478 343 288.19 345.064H294.958C294.958 343.12 293.686 341.824 291.694 341.824ZM302.038 352H299.782V334.336H302.038V352ZM310.423 352.288C306.967 352.288 304.591 349.792 304.591 346.144C304.591 342.472 306.919 339.928 310.327 339.928C313.663 339.928 315.847 342.232 315.847 345.712V346.552L306.775 346.576C306.943 349.048 308.239 350.416 310.471 350.416C312.223 350.416 313.375 349.696 313.759 348.352H315.871C315.295 350.872 313.327 352.288 310.423 352.288ZM310.327 341.824C308.359 341.824 307.111 343 306.823 345.064H313.591C313.591 343.12 312.319 341.824 310.327 341.824ZM317.598 346.144C317.598 342.472 319.926 339.928 323.358 339.928C326.31 339.928 328.374 341.608 328.782 344.224H326.526C326.142 342.736 324.942 341.944 323.43 341.944C321.294 341.944 319.83 343.576 319.83 346.12C319.83 348.64 321.198 350.272 323.334 350.272C324.942 350.272 326.142 349.432 326.55 348.04H328.806C328.35 350.584 326.166 352.288 323.334 352.288C319.878 352.288 317.598 349.84 317.598 346.144ZM334.499 352H332.243V342.16H329.939V340.264H332.243V336.592H334.499V340.264H336.803V342.16H334.499V352ZM345.547 340.168V342.232H344.539C342.403 342.232 341.083 343.528 341.083 345.784V352H338.827V340.288H340.939L341.083 342.064C341.563 340.84 342.739 340.024 344.347 340.024C344.755 340.024 345.091 340.072 345.547 340.168ZM348.767 337.48C347.951 337.48 347.279 336.808 347.279 335.992C347.279 335.152 347.951 334.504 348.767 334.504C349.583 334.504 350.255 335.152 350.255 335.992C350.255 336.808 349.583 337.48 348.767 337.48ZM347.663 352V340.264H349.919V352H347.663ZM352.427 346.144C352.427 342.472 354.755 339.928 358.187 339.928C361.139 339.928 363.203 341.608 363.611 344.224H361.355C360.971 342.736 359.771 341.944 358.259 341.944C356.123 341.944 354.659 343.576 354.659 346.12C354.659 348.64 356.027 350.272 358.163 350.272C359.771 350.272 360.971 349.432 361.379 348.04H363.635C363.179 350.584 360.995 352.288 358.163 352.288C354.707 352.288 352.427 349.84 352.427 346.144ZM374.617 352H372.577V334.336H374.833V342.28C375.601 340.744 377.185 339.928 379.105 339.928C382.465 339.928 384.481 342.568 384.481 346.192C384.481 349.744 382.369 352.288 378.961 352.288C377.113 352.288 375.553 351.472 374.785 349.864L374.617 352ZM374.857 346.096C374.857 348.544 376.249 350.248 378.553 350.248C380.857 350.248 382.225 348.52 382.225 346.096C382.225 343.696 380.857 341.968 378.553 341.968C376.249 341.968 374.857 343.696 374.857 346.096ZM388.072 337.48C387.256 337.48 386.584 336.808 386.584 335.992C386.584 335.152 387.256 334.504 388.072 334.504C388.888 334.504 389.56 335.152 389.56 335.992C389.56 336.808 388.888 337.48 388.072 337.48ZM386.968 352V340.264H389.224V352H386.968ZM394.803 352H392.547V334.336H394.803V352ZM400.428 352H398.172V334.336H400.428V352ZM1.512 382.648V380.632H8.832V382.648H1.512ZM57.2814 375.328C57.2814 372.352 59.6814 370.336 63.2574 370.336C66.5694 370.336 68.7054 372.184 68.8974 375.184H66.5214C66.4014 373.456 65.1774 372.448 63.2334 372.448C61.0494 372.448 59.6334 373.552 59.6334 375.256C59.6334 376.648 60.4254 377.488 62.0574 377.872L64.9134 378.544C67.7454 379.192 69.1854 380.728 69.1854 383.176C69.1854 386.296 66.7614 388.288 63.0654 388.288C59.5374 388.288 57.1854 386.44 57.0414 383.464H59.4414C59.4894 385.12 60.8814 386.176 63.0654 386.176C65.3694 386.176 66.8334 385.096 66.8334 383.368C66.8334 382 66.0894 381.136 64.4334 380.752L61.5774 380.104C58.7454 379.456 57.2814 377.824 57.2814 375.328ZM75.069 388H72.813V378.16H70.509V376.264H72.813V372.592H75.069V376.264H77.373V378.16H75.069V388ZM78.5124 382.12C78.5124 378.496 81.1044 375.952 84.6324 375.952C88.1364 375.952 90.7284 378.496 90.7284 382.12C90.7284 385.744 88.1364 388.288 84.6324 388.288C81.1044 388.288 78.5124 385.744 78.5124 382.12ZM80.7924 382.12C80.7924 384.568 82.3524 386.272 84.6324 386.272C86.8884 386.272 88.4724 384.568 88.4724 382.12C88.4724 379.672 86.8884 377.968 84.6324 377.968C82.3524 377.968 80.7924 379.672 80.7924 382.12ZM93.2258 393.256V376.264H95.2658L95.4338 378.376C96.2258 376.768 97.8098 375.928 99.6818 375.928C103.042 375.928 105.13 378.448 105.13 382.048C105.13 385.624 103.162 388.312 99.6818 388.312C97.8098 388.312 96.2498 387.52 95.4818 386.08V393.256H93.2258ZM95.5058 382.144C95.5058 384.544 96.8978 386.272 99.2018 386.272C101.506 386.272 102.874 384.544 102.874 382.144C102.874 379.72 101.506 377.992 99.2018 377.992C96.8978 377.992 95.5058 379.696 95.5058 382.144ZM120.899 376.168V378.232H119.891C117.755 378.232 116.435 379.528 116.435 381.784V388H114.179V376.288H116.291L116.435 378.064C116.915 376.84 118.091 376.024 119.699 376.024C120.107 376.024 120.443 376.072 120.899 376.168ZM127.657 388.288C124.201 388.288 121.825 385.792 121.825 382.144C121.825 378.472 124.153 375.928 127.561 375.928C130.897 375.928 133.081 378.232 133.081 381.712V382.552L124.009 382.576C124.177 385.048 125.473 386.416 127.705 386.416C129.457 386.416 130.609 385.696 130.993 384.352H133.105C132.529 386.872 130.561 388.288 127.657 388.288ZM127.561 377.824C125.593 377.824 124.345 379 124.057 381.064H130.825C130.825 379.12 129.553 377.824 127.561 377.824ZM137.857 388H135.601V376.264H137.641L137.881 378.064C138.625 376.72 140.113 375.928 141.769 375.928C144.865 375.928 146.281 377.824 146.281 380.824V388H144.025V381.328C144.025 378.952 142.921 377.992 141.193 377.992C139.081 377.992 137.857 379.504 137.857 381.784V388ZM152.717 388H150.461V378.16H148.157V376.264H150.461V372.592H152.717V376.264H155.021V378.16H152.717V388ZM158.15 373.48C157.334 373.48 156.662 372.808 156.662 371.992C156.662 371.152 157.334 370.504 158.15 370.504C158.966 370.504 159.638 371.152 159.638 371.992C159.638 372.808 158.966 373.48 158.15 373.48ZM157.046 388V376.264H159.302V388H157.046ZM164.833 388H162.577V376.264H164.617L164.857 378.064C165.601 376.72 167.089 375.928 168.745 375.928C171.841 375.928 173.257 377.824 173.257 380.824V388H171.001V381.328C171.001 378.952 169.897 377.992 168.169 377.992C166.057 377.992 164.833 379.504 164.833 381.784V388ZM175.638 381.832C175.638 378.52 177.774 375.928 181.182 375.928C183.078 375.928 184.542 376.792 185.286 378.256L185.454 376.264H187.47V387.52C187.47 391.216 185.19 393.568 181.59 393.568C178.398 393.568 176.214 391.768 175.782 388.792H178.038C178.326 390.52 179.622 391.528 181.59 391.528C183.798 391.528 185.238 390.088 185.238 387.856V385.504C184.47 386.872 182.934 387.688 181.086 387.688C177.75 387.688 175.638 385.12 175.638 381.832ZM177.894 381.784C177.894 383.992 179.262 385.72 181.47 385.72C183.75 385.72 185.142 384.088 185.142 381.784C185.142 379.528 183.798 377.896 181.494 377.896C179.238 377.896 177.894 379.624 177.894 381.784ZM196.16 393.256V391.408H197.672C198.752 391.408 199.616 391.24 200.168 389.752L200.576 388.624L195.848 376.264H198.224L201.632 385.72L205.112 376.264H207.44L201.896 390.64C201.104 392.656 199.928 393.496 198.128 393.496C197.384 393.496 196.76 393.4 196.16 393.256ZM208.028 382.12C208.028 378.496 210.62 375.952 214.148 375.952C217.652 375.952 220.244 378.496 220.244 382.12C220.244 385.744 217.652 388.288 214.148 388.288C210.62 388.288 208.028 385.744 208.028 382.12ZM210.308 382.12C210.308 384.568 211.868 386.272 214.148 386.272C216.404 386.272 217.988 384.568 217.988 382.12C217.988 379.672 216.404 377.968 214.148 377.968C211.868 377.968 210.308 379.672 210.308 382.12ZM230.572 376.264H232.804V388H230.788L230.548 386.224C229.876 387.448 228.316 388.288 226.588 388.288C223.852 388.288 222.316 386.44 222.316 383.56V376.264H224.572V382.816C224.572 385.336 225.652 386.296 227.38 386.296C229.444 386.296 230.572 384.976 230.572 382.456V376.264ZM242.797 376.168V378.232H241.789C239.653 378.232 238.333 379.528 238.333 381.784V388H236.077V376.288H238.189L238.333 378.064C238.813 376.84 239.989 376.024 241.597 376.024C242.005 376.024 242.341 376.072 242.797 376.168ZM251.476 393.256V376.264H253.516L253.684 378.376C254.476 376.768 256.06 375.928 257.932 375.928C261.292 375.928 263.38 378.448 263.38 382.048C263.38 385.624 261.412 388.312 257.932 388.312C256.06 388.312 254.5 387.52 253.732 386.08V393.256H251.476ZM253.756 382.144C253.756 384.544 255.148 386.272 257.452 386.272C259.756 386.272 261.124 384.544 261.124 382.144C261.124 379.72 259.756 377.992 257.452 377.992C255.148 377.992 253.756 379.696 253.756 382.144ZM265.098 382.12C265.098 378.496 267.69 375.952 271.218 375.952C274.722 375.952 277.314 378.496 277.314 382.12C277.314 385.744 274.722 388.288 271.218 388.288C267.69 388.288 265.098 385.744 265.098 382.12ZM267.378 382.12C267.378 384.568 268.938 386.272 271.218 386.272C273.474 386.272 275.058 384.568 275.058 382.12C275.058 379.672 273.474 377.968 271.218 377.968C268.938 377.968 267.378 379.672 267.378 382.12ZM281.793 388L277.953 376.264H280.281L282.225 382.36C282.489 383.224 282.729 384.112 282.945 385.144C283.137 384.112 283.449 383.128 283.713 382.36L285.681 376.264H287.985L289.929 382.36C290.121 382.936 290.505 384.304 290.697 385.144C290.889 384.208 291.105 383.392 291.441 382.36L293.409 376.264H295.761L291.753 388H289.617L287.577 381.712C287.193 380.536 286.953 379.624 286.833 378.976C286.713 379.552 286.497 380.32 286.065 381.736L284.025 388H281.793ZM302.219 388.288C298.763 388.288 296.387 385.792 296.387 382.144C296.387 378.472 298.715 375.928 302.123 375.928C305.459 375.928 307.643 378.232 307.643 381.712V382.552L298.571 382.576C298.739 385.048 300.035 386.416 302.267 386.416C304.019 386.416 305.171 385.696 305.555 384.352H307.667C307.091 386.872 305.123 388.288 302.219 388.288ZM302.123 377.824C300.155 377.824 298.907 379 298.619 381.064H305.387C305.387 379.12 304.115 377.824 302.123 377.824ZM316.883 376.168V378.232H315.875C313.739 378.232 312.419 379.528 312.419 381.784V388H310.163V376.288H312.275L312.419 378.064C312.899 376.84 314.075 376.024 315.683 376.024C316.091 376.024 316.427 376.072 316.883 376.168ZM320.485 387.064C320.485 388.792 319.189 390.232 317.485 390.448V389.44C318.469 389.272 319.165 388.624 319.165 387.88C318.997 387.976 318.805 388.024 318.517 388.024C317.725 388.024 317.053 387.448 317.053 386.56C317.053 385.6 317.701 384.904 318.661 384.904C319.669 384.904 320.485 385.744 320.485 387.064ZM329.528 382.12C329.528 378.496 332.12 375.952 335.648 375.952C339.152 375.952 341.744 378.496 341.744 382.12C341.744 385.744 339.152 388.288 335.648 388.288C332.12 388.288 329.528 385.744 329.528 382.12ZM331.808 382.12C331.808 384.568 333.368 386.272 335.648 386.272C337.904 386.272 339.488 384.568 339.488 382.12C339.488 379.672 337.904 377.968 335.648 377.968C333.368 377.968 331.808 379.672 331.808 382.12ZM346.222 388L342.382 376.264H344.71L346.654 382.36C346.918 383.224 347.158 384.112 347.374 385.144C347.566 384.112 347.878 383.128 348.142 382.36L350.11 376.264H352.414L354.358 382.36C354.55 382.936 354.934 384.304 355.126 385.144C355.318 384.208 355.534 383.392 355.87 382.36L357.838 376.264H360.19L356.182 388H354.046L352.006 381.712C351.622 380.536 351.382 379.624 351.262 378.976C351.142 379.552 350.926 380.32 350.494 381.736L348.454 388H346.222ZM364.38 388H362.124V376.264H364.164L364.404 378.064C365.148 376.72 366.636 375.928 368.292 375.928C371.388 375.928 372.804 377.824 372.804 380.824V388H370.548V381.328C370.548 378.952 369.444 377.992 367.716 377.992C365.604 377.992 364.38 379.504 364.38 381.784V388ZM383.595 373.48C382.779 373.48 382.107 372.808 382.107 371.992C382.107 371.152 382.779 370.504 383.595 370.504C384.411 370.504 385.083 371.152 385.083 371.992C385.083 372.808 384.411 373.48 383.595 373.48ZM382.491 388V376.264H384.747V388H382.491ZM391.335 388H389.079V378.16H386.775V376.264H389.079V372.592H391.335V376.264H393.639V378.16H391.335V388ZM1.512 418.648V416.632H8.832V418.648H1.512ZM67.4574 416.632H60.6414V424H58.2894V406.648H68.7534V408.808H60.6414V414.496H67.4574V416.632ZM75.3679 424.288C71.9119 424.288 69.5359 421.792 69.5359 418.144C69.5359 414.472 71.8639 411.928 75.2719 411.928C78.6079 411.928 80.7919 414.232 80.7919 417.712V418.552L71.7199 418.576C71.8879 421.048 73.1839 422.416 75.4159 422.416C77.1679 422.416 78.3199 421.696 78.7039 420.352H80.8159C80.2399 422.872 78.2719 424.288 75.3679 424.288ZM75.2719 413.824C73.3039 413.824 72.0559 415 71.7679 417.064H78.5359C78.5359 415.12 77.2639 413.824 75.2719 413.824ZM88.0157 424.288C84.6077 424.288 82.5437 421.744 82.5437 418.168C82.5437 414.568 84.6317 411.928 88.1117 411.928C89.9117 411.928 91.4237 412.72 92.2157 414.16V406.336H94.4477V424H92.4317L92.2397 421.864C91.4717 423.472 89.8877 424.288 88.0157 424.288ZM88.4717 422.248C90.7757 422.248 92.1917 420.544 92.1917 418.096C92.1917 415.696 90.7757 413.968 88.4717 413.968C86.1677 413.968 84.8237 415.696 84.8237 418.096C84.8237 420.52 86.1677 422.248 88.4717 422.248ZM102.766 424.288C99.3103 424.288 96.9343 421.792 96.9343 418.144C96.9343 414.472 99.2623 411.928 102.67 411.928C106.006 411.928 108.19 414.232 108.19 417.712V418.552L99.1183 418.576C99.2863 421.048 100.582 422.416 102.814 422.416C104.566 422.416 105.718 421.696 106.102 420.352H108.214C107.638 422.872 105.67 424.288 102.766 424.288ZM102.67 413.824C100.702 413.824 99.4543 415 99.1663 417.064H105.934C105.934 415.12 104.662 413.824 102.67 413.824ZM117.43 412.168V414.232H116.422C114.286 414.232 112.966 415.528 112.966 417.784V424H110.71V412.288H112.822L112.966 414.064C113.446 412.84 114.622 412.024 116.23 412.024C116.638 412.024 116.974 412.072 117.43 412.168ZM122.509 424.288C119.989 424.288 118.501 422.872 118.501 420.736C118.501 418.576 120.109 417.232 122.869 417.016L126.565 416.728V416.392C126.565 414.424 125.389 413.728 123.805 413.728C121.909 413.728 120.829 414.568 120.829 415.984H118.861C118.861 413.536 120.877 411.928 123.901 411.928C126.805 411.928 128.773 413.464 128.773 416.632V424H126.853L126.613 422.104C126.013 423.448 124.405 424.288 122.509 424.288ZM123.157 422.536C125.293 422.536 126.589 421.144 126.589 418.936V418.312L123.589 418.552C121.597 418.744 120.781 419.512 120.781 420.664C120.781 421.912 121.693 422.536 123.157 422.536ZM134.202 424H131.946V406.336H134.202V424ZM147.397 424H145.141V414.16H142.837V412.264H145.141V408.592H147.397V412.264H149.701V414.16H147.397V424ZM155.017 424.288C152.497 424.288 151.009 422.872 151.009 420.736C151.009 418.576 152.617 417.232 155.377 417.016L159.073 416.728V416.392C159.073 414.424 157.897 413.728 156.313 413.728C154.417 413.728 153.337 414.568 153.337 415.984H151.369C151.369 413.536 153.385 411.928 156.409 411.928C159.313 411.928 161.281 413.464 161.281 416.632V424H159.361L159.121 422.104C158.521 423.448 156.913 424.288 155.017 424.288ZM155.665 422.536C157.801 422.536 159.097 421.144 159.097 418.936V418.312L156.097 418.552C154.105 418.744 153.289 419.512 153.289 420.664C153.289 421.912 154.201 422.536 155.665 422.536ZM165.605 424H163.013L167.117 418.192L163.037 412.264H165.653L168.629 416.632L171.533 412.264H174.101L170.021 418.192L174.029 424H171.413L168.485 419.704L165.605 424ZM183.65 409.48C182.834 409.48 182.162 408.808 182.162 407.992C182.162 407.152 182.834 406.504 183.65 406.504C184.466 406.504 185.138 407.152 185.138 407.992C185.138 408.808 184.466 409.48 183.65 409.48ZM182.546 424V412.264H184.802V424H182.546ZM190.333 424H188.077V412.264H190.117L190.357 414.064C191.101 412.72 192.589 411.928 194.245 411.928C197.341 411.928 198.757 413.824 198.757 416.824V424H196.501V417.328C196.501 414.952 195.397 413.992 193.669 413.992C191.557 413.992 190.333 415.504 190.333 417.784V424ZM201.114 418.144C201.114 414.472 203.442 411.928 206.874 411.928C209.826 411.928 211.89 413.608 212.298 416.224H210.042C209.658 414.736 208.458 413.944 206.946 413.944C204.81 413.944 203.346 415.576 203.346 418.12C203.346 420.64 204.714 422.272 206.85 422.272C208.458 422.272 209.658 421.432 210.066 420.04H212.322C211.866 422.584 209.682 424.288 206.85 424.288C203.394 424.288 201.114 421.84 201.114 418.144ZM219.766 424.288C216.31 424.288 213.934 421.792 213.934 418.144C213.934 414.472 216.262 411.928 219.67 411.928C223.006 411.928 225.19 414.232 225.19 417.712V418.552L216.118 418.576C216.286 421.048 217.582 422.416 219.814 422.416C221.566 422.416 222.718 421.696 223.102 420.352H225.214C224.638 422.872 222.67 424.288 219.766 424.288ZM219.67 413.824C217.702 413.824 216.454 415 216.166 417.064H222.934C222.934 415.12 221.662 413.824 219.67 413.824ZM229.966 424H227.71V412.264H229.75L229.99 414.064C230.734 412.72 232.222 411.928 233.878 411.928C236.974 411.928 238.39 413.824 238.39 416.824V424H236.134V417.328C236.134 414.952 235.03 413.992 233.302 413.992C231.19 413.992 229.966 415.504 229.966 417.784V424ZM244.827 424H242.571V414.16H240.267V412.264H242.571V408.592H244.827V412.264H247.131V414.16H244.827V424ZM250.259 409.48C249.443 409.48 248.771 408.808 248.771 407.992C248.771 407.152 249.443 406.504 250.259 406.504C251.075 406.504 251.747 407.152 251.747 407.992C251.747 408.808 251.075 409.48 250.259 409.48ZM249.155 424V412.264H251.411V424H249.155ZM257.975 424L253.247 412.264H255.647L258.215 418.816C258.623 419.92 258.959 420.904 259.151 421.624C259.343 420.856 259.727 419.848 260.135 418.816L262.751 412.264H265.103L260.207 424H257.975ZM271.423 424.288C267.967 424.288 265.591 421.792 265.591 418.144C265.591 414.472 267.919 411.928 271.327 411.928C274.663 411.928 276.847 414.232 276.847 417.712V418.552L267.775 418.576C267.943 421.048 269.239 422.416 271.471 422.416C273.223 422.416 274.375 421.696 274.759 420.352H276.871C276.295 422.872 274.327 424.288 271.423 424.288ZM271.327 413.824C269.359 413.824 268.111 415 267.823 417.064H274.591C274.591 415.12 273.319 413.824 271.327 413.824ZM1.512 454.648V452.632H8.832V454.648H1.512ZM60.6414 442.648V460H58.2894V442.648H60.6414ZM66.5599 460H64.3039V448.264H66.3439L66.5839 450.064C67.3279 448.72 68.8159 447.928 70.4719 447.928C73.5679 447.928 74.9839 449.824 74.9839 452.824V460H72.7279V453.328C72.7279 450.952 71.6239 449.992 69.8959 449.992C67.7839 449.992 66.5599 451.504 66.5599 453.784V460ZM77.3406 454.144C77.3406 450.472 79.6686 447.928 83.1006 447.928C86.0526 447.928 88.1166 449.608 88.5246 452.224H86.2686C85.8846 450.736 84.6846 449.944 83.1726 449.944C81.0366 449.944 79.5726 451.576 79.5726 454.12C79.5726 456.64 80.9406 458.272 83.0766 458.272C84.6846 458.272 85.8846 457.432 86.2926 456.04H88.5486C88.0926 458.584 85.9086 460.288 83.0766 460.288C79.6206 460.288 77.3406 457.84 77.3406 454.144ZM97.6489 448.168V450.232H96.6409C94.5049 450.232 93.1849 451.528 93.1849 453.784V460H90.9289V448.288H93.0409L93.1849 450.064C93.6649 448.84 94.8409 448.024 96.4489 448.024C96.8569 448.024 97.1929 448.072 97.6489 448.168ZM104.407 460.288C100.951 460.288 98.5749 457.792 98.5749 454.144C98.5749 450.472 100.903 447.928 104.311 447.928C107.647 447.928 109.831 450.232 109.831 453.712V454.552L100.759 454.576C100.927 457.048 102.223 458.416 104.455 458.416C106.207 458.416 107.359 457.696 107.743 456.352H109.855C109.279 458.872 107.311 460.288 104.407 460.288ZM104.311 449.824C102.343 449.824 101.095 451 100.807 453.064H107.575C107.575 451.12 106.303 449.824 104.311 449.824ZM115.666 460.288C113.146 460.288 111.658 458.872 111.658 456.736C111.658 454.576 113.266 453.232 116.026 453.016L119.722 452.728V452.392C119.722 450.424 118.546 449.728 116.962 449.728C115.066 449.728 113.986 450.568 113.986 451.984H112.018C112.018 449.536 114.034 447.928 117.058 447.928C119.962 447.928 121.93 449.464 121.93 452.632V460H120.01L119.77 458.104C119.17 459.448 117.562 460.288 115.666 460.288ZM116.314 458.536C118.45 458.536 119.746 457.144 119.746 454.936V454.312L116.746 454.552C114.754 454.744 113.938 455.512 113.938 456.664C113.938 457.912 114.85 458.536 116.314 458.536ZM124.094 456.592H126.254C126.254 457.792 127.166 458.512 128.654 458.512C130.238 458.512 131.15 457.864 131.15 456.784C131.15 455.992 130.766 455.512 129.542 455.2L127.478 454.72C125.39 454.216 124.406 453.184 124.406 451.456C124.406 449.296 126.23 447.928 128.822 447.928C131.39 447.928 133.07 449.368 133.118 451.6H130.958C130.91 450.424 130.118 449.68 128.75 449.68C127.334 449.68 126.542 450.304 126.542 451.384C126.542 452.176 127.118 452.704 128.27 452.992L130.334 453.496C132.326 453.976 133.31 454.888 133.31 456.64C133.31 458.872 131.39 460.288 128.606 460.288C125.846 460.288 124.094 458.824 124.094 456.592ZM140.876 460.288C137.42 460.288 135.044 457.792 135.044 454.144C135.044 450.472 137.372 447.928 140.78 447.928C144.116 447.928 146.3 450.232 146.3 453.712V454.552L137.228 454.576C137.396 457.048 138.692 458.416 140.924 458.416C142.676 458.416 143.828 457.696 144.212 456.352H146.324C145.748 458.872 143.78 460.288 140.876 460.288ZM140.78 449.824C138.812 449.824 137.564 451 137.276 453.064H144.044C144.044 451.12 142.772 449.824 140.78 449.824ZM154.254 465.256V463.408H155.766C156.846 463.408 157.71 463.24 158.262 461.752L158.67 460.624L153.942 448.264H156.318L159.726 457.72L163.206 448.264H165.534L159.99 462.64C159.198 464.656 158.022 465.496 156.222 465.496C155.478 465.496 154.854 465.4 154.254 465.256ZM166.122 454.12C166.122 450.496 168.714 447.952 172.242 447.952C175.746 447.952 178.338 450.496 178.338 454.12C178.338 457.744 175.746 460.288 172.242 460.288C168.714 460.288 166.122 457.744 166.122 454.12ZM168.402 454.12C168.402 456.568 169.962 458.272 172.242 458.272C174.498 458.272 176.082 456.568 176.082 454.12C176.082 451.672 174.498 449.968 172.242 449.968C169.962 449.968 168.402 451.672 168.402 454.12ZM188.666 448.264H190.898V460H188.882L188.642 458.224C187.97 459.448 186.41 460.288 184.682 460.288C181.946 460.288 180.41 458.44 180.41 455.56V448.264H182.666V454.816C182.666 457.336 183.746 458.296 185.474 458.296C187.538 458.296 188.666 456.976 188.666 454.456V448.264ZM200.891 448.168V450.232H199.883C197.747 450.232 196.427 451.528 196.427 453.784V460H194.171V448.288H196.283L196.427 450.064C196.907 448.84 198.083 448.024 199.691 448.024C200.099 448.024 200.435 448.072 200.891 448.168ZM209.57 465.256V448.264H211.61L211.778 450.376C212.57 448.768 214.154 447.928 216.026 447.928C219.386 447.928 221.474 450.448 221.474 454.048C221.474 457.624 219.506 460.312 216.026 460.312C214.154 460.312 212.594 459.52 211.826 458.08V465.256H209.57ZM211.85 454.144C211.85 456.544 213.242 458.272 215.546 458.272C217.85 458.272 219.218 456.544 219.218 454.144C219.218 451.72 217.85 449.992 215.546 449.992C213.242 449.992 211.85 451.696 211.85 454.144ZM230.68 448.168V450.232H229.672C227.536 450.232 226.216 451.528 226.216 453.784V460H223.96V448.288H226.072L226.216 450.064C226.696 448.84 227.872 448.024 229.48 448.024C229.888 448.024 230.224 448.072 230.68 448.168ZM231.606 454.12C231.606 450.496 234.198 447.952 237.726 447.952C241.23 447.952 243.822 450.496 243.822 454.12C243.822 457.744 241.23 460.288 237.726 460.288C234.198 460.288 231.606 457.744 231.606 454.12ZM233.886 454.12C233.886 456.568 235.446 458.272 237.726 458.272C239.982 458.272 241.566 456.568 241.566 454.12C241.566 451.672 239.982 449.968 237.726 449.968C235.446 449.968 233.886 451.672 233.886 454.12ZM246.32 465.256V448.264H248.36L248.528 450.376C249.32 448.768 250.904 447.928 252.776 447.928C256.136 447.928 258.224 450.448 258.224 454.048C258.224 457.624 256.256 460.312 252.776 460.312C250.904 460.312 249.344 459.52 248.576 458.08V465.256H246.32ZM248.6 454.144C248.6 456.544 249.992 458.272 252.296 458.272C254.6 458.272 255.968 456.544 255.968 454.144C255.968 451.72 254.6 449.992 252.296 449.992C249.992 449.992 248.6 451.696 248.6 454.144ZM265.774 460.288C262.318 460.288 259.942 457.792 259.942 454.144C259.942 450.472 262.27 447.928 265.678 447.928C269.014 447.928 271.198 450.232 271.198 453.712V454.552L262.126 454.576C262.294 457.048 263.59 458.416 265.822 458.416C267.574 458.416 268.726 457.696 269.11 456.352H271.222C270.646 458.872 268.678 460.288 265.774 460.288ZM265.678 449.824C263.71 449.824 262.462 451 262.174 453.064H268.942C268.942 451.12 267.67 449.824 265.678 449.824ZM280.438 448.168V450.232H279.43C277.294 450.232 275.974 451.528 275.974 453.784V460H273.718V448.288H275.83L275.974 450.064C276.454 448.84 277.63 448.024 279.238 448.024C279.646 448.024 279.982 448.072 280.438 448.168ZM286.335 460H284.079V450.16H281.775V448.264H284.079V444.592H286.335V448.264H288.639V450.16H286.335V460ZM289.535 465.256V463.408H291.047C292.127 463.408 292.991 463.24 293.543 461.752L293.951 460.624L289.223 448.264H291.599L295.007 457.72L298.487 448.264H300.815L295.271 462.64C294.479 464.656 293.303 465.496 291.503 465.496C290.759 465.496 290.135 465.4 289.535 465.256ZM312.467 460L307.739 448.264H310.139L312.707 454.816C313.115 455.92 313.451 456.904 313.643 457.624C313.835 456.856 314.219 455.848 314.627 454.816L317.243 448.264H319.595L314.699 460H312.467ZM324.283 460.288C321.763 460.288 320.275 458.872 320.275 456.736C320.275 454.576 321.883 453.232 324.643 453.016L328.339 452.728V452.392C328.339 450.424 327.163 449.728 325.579 449.728C323.683 449.728 322.603 450.568 322.603 451.984H320.635C320.635 449.536 322.651 447.928 325.675 447.928C328.579 447.928 330.547 449.464 330.547 452.632V460H328.627L328.387 458.104C327.787 459.448 326.179 460.288 324.283 460.288ZM324.931 458.536C327.067 458.536 328.363 457.144 328.363 454.936V454.312L325.363 454.552C323.371 454.744 322.555 455.512 322.555 456.664C322.555 457.912 323.467 458.536 324.931 458.536ZM335.975 460H333.719V442.336H335.975V460ZM347.408 448.264H349.64V460H347.624L347.384 458.224C346.712 459.448 345.152 460.288 343.424 460.288C340.688 460.288 339.152 458.44 339.152 455.56V448.264H341.408V454.816C341.408 457.336 342.488 458.296 344.216 458.296C346.28 458.296 347.408 456.976 347.408 454.456V448.264ZM357.743 460.288C354.287 460.288 351.911 457.792 351.911 454.144C351.911 450.472 354.239 447.928 357.647 447.928C360.983 447.928 363.167 450.232 363.167 453.712V454.552L354.095 454.576C354.263 457.048 355.559 458.416 357.791 458.416C359.543 458.416 360.695 457.696 361.079 456.352H363.191C362.615 458.872 360.647 460.288 357.743 460.288ZM357.647 449.824C355.679 449.824 354.431 451 354.143 453.064H360.911C360.911 451.12 359.639 449.824 357.647 449.824ZM1.512 490.648V488.632H8.832V490.648H1.512ZM60.6414 496H58.2894V478.648H60.6414V486.112H69.2334V478.648H71.5854V496H69.2334V488.296H60.6414V496ZM80.2898 496.288C76.8338 496.288 74.4578 493.792 74.4578 490.144C74.4578 486.472 76.7858 483.928 80.1938 483.928C83.5298 483.928 85.7137 486.232 85.7137 489.712V490.552L76.6418 490.576C76.8098 493.048 78.1058 494.416 80.3378 494.416C82.0898 494.416 83.2418 493.696 83.6258 492.352H85.7378C85.1618 494.872 83.1938 496.288 80.2898 496.288ZM80.1938 485.824C78.2258 485.824 76.9778 487 76.6898 489.064H83.4578C83.4578 487.12 82.1858 485.824 80.1938 485.824ZM90.5376 496H88.2816V478.336H90.5376V496ZM93.8586 501.256V484.264H95.8986L96.0666 486.376C96.8586 484.768 98.4426 483.928 100.315 483.928C103.675 483.928 105.763 486.448 105.763 490.048C105.763 493.624 103.795 496.312 100.315 496.312C98.4426 496.312 96.8826 495.52 96.1146 494.08V501.256H93.8586ZM96.1386 490.144C96.1386 492.544 97.5306 494.272 99.8346 494.272C102.139 494.272 103.507 492.544 103.507 490.144C103.507 487.72 102.139 485.992 99.8346 485.992C97.5306 485.992 96.1386 487.696 96.1386 490.144ZM118.124 496H115.868V486.16H113.564V484.264H115.868V480.592H118.124V484.264H120.428V486.16H118.124V496ZM124.708 495.976H122.452V478.336H124.708V486.064C125.452 484.792 126.868 483.928 128.692 483.928C131.692 483.928 133.132 485.824 133.132 488.824V496H130.876V489.328C130.876 486.952 129.748 485.992 128.068 485.992C125.884 485.992 124.708 487.576 124.708 489.592V495.976ZM141.321 496.288C137.865 496.288 135.489 493.792 135.489 490.144C135.489 486.472 137.817 483.928 141.225 483.928C144.561 483.928 146.745 486.232 146.745 489.712V490.552L137.673 490.576C137.841 493.048 139.137 494.416 141.369 494.416C143.121 494.416 144.273 493.696 144.657 492.352H146.769C146.193 494.872 144.225 496.288 141.321 496.288ZM141.225 485.824C139.257 485.824 138.009 487 137.721 489.064H144.489C144.489 487.12 143.217 485.824 141.225 485.824ZM160.891 496.288C157.435 496.288 155.059 493.792 155.059 490.144C155.059 486.472 157.387 483.928 160.795 483.928C164.131 483.928 166.315 486.232 166.315 489.712V490.552L157.243 490.576C157.411 493.048 158.707 494.416 160.939 494.416C162.691 494.416 163.843 493.696 164.227 492.352H166.339C165.763 494.872 163.795 496.288 160.891 496.288ZM160.795 485.824C158.827 485.824 157.579 487 157.291 489.064H164.059C164.059 487.12 162.787 485.824 160.795 485.824ZM171.091 496H168.835V484.264H170.875L171.115 486.064C171.859 484.72 173.347 483.928 175.003 483.928C178.099 483.928 179.515 485.824 179.515 488.824V496H177.259V489.328C177.259 486.952 176.155 485.992 174.427 485.992C172.315 485.992 171.091 487.504 171.091 489.784V496ZM185.693 496L180.965 484.264H183.365L185.933 490.816C186.341 491.92 186.677 492.904 186.869 493.624C187.061 492.856 187.445 491.848 187.853 490.816L190.469 484.264H192.821L187.925 496H185.693ZM195.72 481.48C194.904 481.48 194.232 480.808 194.232 479.992C194.232 479.152 194.904 478.504 195.72 478.504C196.536 478.504 197.208 479.152 197.208 479.992C197.208 480.808 196.536 481.48 195.72 481.48ZM194.616 496V484.264H196.872V496H194.616ZM206.868 484.168V486.232H205.86C203.724 486.232 202.404 487.528 202.404 489.784V496H200.148V484.288H202.26L202.404 486.064C202.884 484.84 204.06 484.024 205.668 484.024C206.076 484.024 206.412 484.072 206.868 484.168ZM207.794 490.12C207.794 486.496 210.386 483.952 213.914 483.952C217.418 483.952 220.01 486.496 220.01 490.12C220.01 493.744 217.418 496.288 213.914 496.288C210.386 496.288 207.794 493.744 207.794 490.12ZM210.074 490.12C210.074 492.568 211.634 494.272 213.914 494.272C216.17 494.272 217.754 492.568 217.754 490.12C217.754 487.672 216.17 485.968 213.914 485.968C211.634 485.968 210.074 487.672 210.074 490.12ZM224.763 496H222.507V484.264H224.547L224.787 486.064C225.531 484.72 227.019 483.928 228.675 483.928C231.771 483.928 233.187 485.824 233.187 488.824V496H230.931V489.328C230.931 486.952 229.827 485.992 228.099 485.992C225.987 485.992 224.763 487.504 224.763 489.784V496ZM238.568 496H236.312V484.264H238.328L238.544 485.8C239.144 484.696 240.392 483.928 242.048 483.928C243.872 483.928 245.168 484.84 245.768 486.304C246.32 484.84 247.736 483.928 249.56 483.928C252.248 483.928 253.88 485.608 253.88 488.32V496H251.672V488.872C251.672 487.024 250.64 485.968 249.056 485.968C247.352 485.968 246.224 487.168 246.224 489.04V496H243.992V488.848C243.992 487 242.984 485.992 241.4 485.992C239.696 485.992 238.568 487.168 238.568 489.04V496ZM262.071 496.288C258.615 496.288 256.239 493.792 256.239 490.144C256.239 486.472 258.567 483.928 261.975 483.928C265.311 483.928 267.495 486.232 267.495 489.712V490.552L258.423 490.576C258.591 493.048 259.887 494.416 262.119 494.416C263.871 494.416 265.023 493.696 265.407 492.352H267.519C266.943 494.872 264.975 496.288 262.071 496.288ZM261.975 485.824C260.007 485.824 258.759 487 258.471 489.064H265.239C265.239 487.12 263.967 485.824 261.975 485.824ZM272.271 496H270.015V484.264H272.055L272.295 486.064C273.039 484.72 274.527 483.928 276.183 483.928C279.279 483.928 280.695 485.824 280.695 488.824V496H278.439V489.328C278.439 486.952 277.335 485.992 275.607 485.992C273.495 485.992 272.271 487.504 272.271 489.784V496ZM287.132 496H284.876V486.16H282.572V484.264H284.876V480.592H287.132V484.264H289.436V486.16H287.132V496ZM1.512 526.648V524.632H8.832V526.648H1.512ZM57.2814 519.328C57.2814 516.352 59.6814 514.336 63.2574 514.336C66.5694 514.336 68.7054 516.184 68.8974 519.184H66.5214C66.4014 517.456 65.1774 516.448 63.2334 516.448C61.0494 516.448 59.6334 517.552 59.6334 519.256C59.6334 520.648 60.4254 521.488 62.0574 521.872L64.9134 522.544C67.7454 523.192 69.1854 524.728 69.1854 527.176C69.1854 530.296 66.7614 532.288 63.0654 532.288C59.5374 532.288 57.1854 530.44 57.0414 527.464H59.4414C59.4894 529.12 60.8814 530.176 63.0654 530.176C65.3694 530.176 66.8334 529.096 66.8334 527.368C66.8334 526 66.0894 525.136 64.4334 524.752L61.5774 524.104C58.7454 523.456 57.2814 521.824 57.2814 519.328ZM75.189 532.288C72.669 532.288 71.181 530.872 71.181 528.736C71.181 526.576 72.789 525.232 75.549 525.016L79.245 524.728V524.392C79.245 522.424 78.069 521.728 76.485 521.728C74.589 521.728 73.509 522.568 73.509 523.984H71.541C71.541 521.536 73.557 519.928 76.581 519.928C79.485 519.928 81.453 521.464 81.453 524.632V532H79.533L79.293 530.104C78.693 531.448 77.085 532.288 75.189 532.288ZM75.837 530.536C77.973 530.536 79.269 529.144 79.269 526.936V526.312L76.269 526.552C74.277 526.744 73.461 527.512 73.461 528.664C73.461 529.912 74.373 530.536 75.837 530.536ZM87.3966 532L82.6686 520.264H85.0686L87.6366 526.816C88.0446 527.92 88.3806 528.904 88.5726 529.624C88.7646 528.856 89.1486 527.848 89.5566 526.816L92.1726 520.264H94.5246L89.6286 532H87.3966ZM100.844 532.288C97.3884 532.288 95.0124 529.792 95.0124 526.144C95.0124 522.472 97.3404 519.928 100.748 519.928C104.084 519.928 106.268 522.232 106.268 525.712V526.552L97.1964 526.576C97.3644 529.048 98.6604 530.416 100.892 530.416C102.644 530.416 103.796 529.696 104.18 528.352H106.292C105.716 530.872 103.748 532.288 100.844 532.288ZM100.748 521.824C98.7804 521.824 97.5324 523 97.2444 525.064H104.012C104.012 523.12 102.74 521.824 100.748 521.824ZM118.663 532H116.407V522.16H114.103V520.264H116.407V516.592H118.663V520.264H120.967V522.16H118.663V532ZM125.247 531.976H122.991V514.336H125.247V522.064C125.991 520.792 127.407 519.928 129.231 519.928C132.231 519.928 133.671 521.824 133.671 524.824V532H131.415V525.328C131.415 522.952 130.287 521.992 128.607 521.992C126.423 521.992 125.247 523.576 125.247 525.592V531.976ZM136.028 526.12C136.028 522.496 138.62 519.952 142.148 519.952C145.652 519.952 148.244 522.496 148.244 526.12C148.244 529.744 145.652 532.288 142.148 532.288C138.62 532.288 136.028 529.744 136.028 526.12ZM138.308 526.12C138.308 528.568 139.868 530.272 142.148 530.272C144.404 530.272 145.988 528.568 145.988 526.12C145.988 523.672 144.404 521.968 142.148 521.968C139.868 521.968 138.308 523.672 138.308 526.12ZM158.572 520.264H160.804V532H158.788L158.548 530.224C157.876 531.448 156.316 532.288 154.588 532.288C151.852 532.288 150.316 530.44 150.316 527.56V520.264H152.572V526.816C152.572 529.336 153.652 530.296 155.38 530.296C157.444 530.296 158.572 528.976 158.572 526.456V520.264ZM162.883 528.592H165.043C165.043 529.792 165.955 530.512 167.443 530.512C169.027 530.512 169.939 529.864 169.939 528.784C169.939 527.992 169.555 527.512 168.331 527.2L166.267 526.72C164.179 526.216 163.195 525.184 163.195 523.456C163.195 521.296 165.019 519.928 167.611 519.928C170.179 519.928 171.859 521.368 171.907 523.6H169.747C169.699 522.424 168.907 521.68 167.539 521.68C166.123 521.68 165.331 522.304 165.331 523.384C165.331 524.176 165.907 524.704 167.059 524.992L169.123 525.496C171.115 525.976 172.099 526.888 172.099 528.64C172.099 530.872 170.179 532.288 167.395 532.288C164.635 532.288 162.883 530.824 162.883 528.592ZM178.033 532.288C175.513 532.288 174.025 530.872 174.025 528.736C174.025 526.576 175.633 525.232 178.393 525.016L182.089 524.728V524.392C182.089 522.424 180.913 521.728 179.329 521.728C177.433 521.728 176.353 522.568 176.353 523.984H174.385C174.385 521.536 176.401 519.928 179.425 519.928C182.329 519.928 184.297 521.464 184.297 524.632V532H182.377L182.137 530.104C181.537 531.448 179.929 532.288 178.033 532.288ZM178.681 530.536C180.817 530.536 182.113 529.144 182.113 526.936V526.312L179.113 526.552C177.121 526.744 176.305 527.512 176.305 528.664C176.305 529.912 177.217 530.536 178.681 530.536ZM189.677 532H187.421V520.264H189.461L189.701 522.064C190.445 520.72 191.933 519.928 193.589 519.928C196.685 519.928 198.101 521.824 198.101 524.824V532H195.845V525.328C195.845 522.952 194.741 521.992 193.013 521.992C190.901 521.992 189.677 523.504 189.677 525.784V532ZM205.93 532.288C202.522 532.288 200.458 529.744 200.458 526.168C200.458 522.568 202.546 519.928 206.026 519.928C207.826 519.928 209.338 520.72 210.13 522.16V514.336H212.362V532H210.346L210.154 529.864C209.386 531.472 207.802 532.288 205.93 532.288ZM206.386 530.248C208.69 530.248 210.106 528.544 210.106 526.096C210.106 523.696 208.69 521.968 206.386 521.968C204.082 521.968 202.738 523.696 202.738 526.096C202.738 528.52 204.082 530.248 206.386 530.248ZM214.656 528.592H216.816C216.816 529.792 217.728 530.512 219.216 530.512C220.8 530.512 221.712 529.864 221.712 528.784C221.712 527.992 221.328 527.512 220.104 527.2L218.04 526.72C215.952 526.216 214.968 525.184 214.968 523.456C214.968 521.296 216.792 519.928 219.384 519.928C221.952 519.928 223.632 521.368 223.68 523.6H221.52C221.472 522.424 220.68 521.68 219.312 521.68C217.896 521.68 217.104 522.304 217.104 523.384C217.104 524.176 217.68 524.704 218.832 524.992L220.896 525.496C222.888 525.976 223.872 526.888 223.872 528.64C223.872 530.872 221.952 532.288 219.168 532.288C216.408 532.288 214.656 530.824 214.656 528.592ZM232.169 526.12C232.169 522.496 234.761 519.952 238.289 519.952C241.793 519.952 244.385 522.496 244.385 526.12C244.385 529.744 241.793 532.288 238.289 532.288C234.761 532.288 232.169 529.744 232.169 526.12ZM234.449 526.12C234.449 528.568 236.009 530.272 238.289 530.272C240.545 530.272 242.129 528.568 242.129 526.12C242.129 523.672 240.545 521.968 238.289 521.968C236.009 521.968 234.449 523.672 234.449 526.12ZM245.564 520.264H247.292V518.392C247.292 515.512 248.876 514.336 251.012 514.336C251.444 514.336 251.948 514.36 252.404 514.432V516.376H251.396C249.932 516.376 249.548 517.12 249.548 518.392V520.264H252.332V522.16H249.548V532H247.292V522.16H245.564V520.264ZM265.695 532.288C262.287 532.288 260.223 529.744 260.223 526.168C260.223 522.568 262.311 519.928 265.791 519.928C267.591 519.928 269.103 520.72 269.895 522.16V514.336H272.127V532H270.111L269.919 529.864C269.151 531.472 267.567 532.288 265.695 532.288ZM266.151 530.248C268.455 530.248 269.871 528.544 269.871 526.096C269.871 523.696 268.455 521.968 266.151 521.968C263.847 521.968 262.503 523.696 262.503 526.096C262.503 528.52 263.847 530.248 266.151 530.248ZM274.614 526.12C274.614 522.496 277.206 519.952 280.734 519.952C284.238 519.952 286.83 522.496 286.83 526.12C286.83 529.744 284.238 532.288 280.734 532.288C277.206 532.288 274.614 529.744 274.614 526.12ZM276.894 526.12C276.894 528.568 278.454 530.272 280.734 530.272C282.99 530.272 284.574 528.568 284.574 526.12C284.574 523.672 282.99 521.968 280.734 521.968C278.454 521.968 276.894 523.672 276.894 526.12ZM291.631 532H289.375V514.336H291.631V532ZM297.256 532H295V514.336H297.256V532ZM304.009 532.288C301.489 532.288 300.001 530.872 300.001 528.736C300.001 526.576 301.609 525.232 304.369 525.016L308.065 524.728V524.392C308.065 522.424 306.889 521.728 305.305 521.728C303.409 521.728 302.329 522.568 302.329 523.984H300.361C300.361 521.536 302.377 519.928 305.401 519.928C308.305 519.928 310.273 521.464 310.273 524.632V532H308.353L308.113 530.104C307.513 531.448 305.905 532.288 304.009 532.288ZM304.657 530.536C306.793 530.536 308.089 529.144 308.089 526.936V526.312L305.089 526.552C303.097 526.744 302.281 527.512 302.281 528.664C302.281 529.912 303.193 530.536 304.657 530.536ZM320.118 520.168V522.232H319.11C316.974 522.232 315.654 523.528 315.654 525.784V532H313.398V520.288H315.51L315.654 522.064C316.134 520.84 317.31 520.024 318.918 520.024C319.326 520.024 319.662 520.072 320.118 520.168ZM321.274 528.592H323.434C323.434 529.792 324.346 530.512 325.834 530.512C327.418 530.512 328.33 529.864 328.33 528.784C328.33 527.992 327.946 527.512 326.722 527.2L324.658 526.72C322.57 526.216 321.586 525.184 321.586 523.456C321.586 521.296 323.41 519.928 326.002 519.928C328.57 519.928 330.25 521.368 330.298 523.6H328.138C328.09 522.424 327.298 521.68 325.93 521.68C324.514 521.68 323.722 522.304 323.722 523.384C323.722 524.176 324.298 524.704 325.45 524.992L327.514 525.496C329.506 525.976 330.49 526.888 330.49 528.64C330.49 530.872 328.57 532.288 325.786 532.288C323.026 532.288 321.274 530.824 321.274 528.592Z" fill="white"/>
<rect x="1" y="598" width="457" height="46" rx="3" stroke="white" stroke-opacity="0.3" stroke-width="2"/>
<path d="M35.2631 626.668C32.1551 626.668 30.2091 624.61 30.2091 621.334C30.2091 618.1 32.2671 615.972 35.3611 615.972C37.9511 615.972 39.8131 617.456 40.1351 619.78H37.7411C37.4331 618.744 36.5511 618.156 35.3051 618.156C33.6251 618.156 32.6031 619.346 32.6031 621.32C32.6031 623.266 33.6391 624.484 35.3051 624.484C36.5791 624.484 37.5171 623.854 37.7971 622.832H40.1491C39.7851 625.142 37.8531 626.668 35.2631 626.668ZM45.9339 616.14V624.4H50.0219V626.5H43.6659V616.14H45.9339ZM55.7132 616.14V626.5H53.4452V616.14H55.7132ZM64.3549 626.668C61.2469 626.668 59.3009 624.61 59.3009 621.334C59.3009 618.1 61.3589 615.972 64.4529 615.972C67.0429 615.972 68.9049 617.456 69.2269 619.78H66.8329C66.5249 618.744 65.6429 618.156 64.3969 618.156C62.7169 618.156 61.6949 619.346 61.6949 621.32C61.6949 623.266 62.7309 624.484 64.3969 624.484C65.6709 624.484 66.6089 623.854 66.8889 622.832H69.2409C68.8769 625.142 66.9449 626.668 64.3549 626.668ZM75.0257 616.14V621.096L78.7637 616.14H81.4377L78.0497 620.564L81.4657 626.5H78.8477L76.5657 622.496L75.0257 624.512V626.5H72.7577V616.14H75.0257ZM92.6565 626.5H90.3885V616.14H92.6565V620.228H96.6605V616.14H98.9285V626.5H96.6605V622.328H92.6565V626.5ZM109.66 626.5H103.08V616.14H109.66V618.24H105.348V620.27H109.17V622.258H105.348V624.4H109.66V626.5ZM115.784 626.5H113.516V616.14H117.52C120.04 616.14 121.468 617.358 121.468 619.5C121.468 620.844 120.894 621.796 119.746 622.384L121.566 626.5H119.088L117.534 622.874H115.784V626.5ZM115.784 618.156V620.886H117.506C118.5 620.886 119.074 620.382 119.074 619.5C119.074 618.632 118.528 618.156 117.52 618.156H115.784ZM131.734 626.5H125.154V616.14H131.734V618.24H127.422V620.27H131.244V622.258H127.422V624.4H131.734V626.5ZM140.497 618.24V616.14H148.645V618.24H145.705V626.5H143.437V618.24H140.497ZM161.156 621.306C161.156 624.47 159.07 626.668 156.06 626.668C153.064 626.668 151.006 624.484 151.006 621.32C151.006 618.156 153.078 615.958 156.074 615.958C159.084 615.958 161.156 618.142 161.156 621.306ZM158.762 621.306C158.762 619.332 157.754 618.142 156.088 618.142C154.408 618.142 153.4 619.332 153.4 621.306C153.4 623.294 154.408 624.484 156.088 624.484C157.754 624.484 158.762 623.266 158.762 621.306ZM169.867 619.15C169.867 617.274 171.449 615.944 173.675 615.944C175.901 615.944 177.301 617.176 177.301 619.136H175.047C175.047 618.408 174.501 617.96 173.647 617.96C172.723 617.96 172.135 618.38 172.135 619.066C172.135 619.696 172.457 620.004 173.185 620.158L174.739 620.48C176.587 620.858 177.469 621.74 177.469 623.378C177.469 625.38 175.901 626.682 173.521 626.682C171.211 626.682 169.713 625.436 169.713 623.49H171.967C171.967 624.246 172.527 624.666 173.535 624.666C174.557 624.666 175.201 624.26 175.201 623.602C175.201 623.028 174.935 622.734 174.249 622.594L172.667 622.272C170.819 621.894 169.867 620.844 169.867 619.15ZM187.553 626.5H180.973V616.14H187.553V618.24H183.241V620.27H187.063V622.258H183.241V624.4H187.553V626.5ZM197.988 626.5H191.408V616.14H197.988V618.24H193.676V620.27H197.498V622.258H193.676V624.4H197.988V626.5ZM209.817 616.14V626.5H207.549V616.14H209.817ZM219.886 622.454H216.246V626.5H213.978V616.14H220.572V618.24H216.246V620.41H219.886V622.454ZM232.394 622.566L228.894 616.14H231.428L233.164 619.5C233.332 619.822 233.444 620.074 233.556 620.34C233.682 620.088 233.794 619.822 233.962 619.486L235.698 616.14H238.162L234.662 622.566V626.5H232.394V622.566ZM250.117 621.306C250.117 624.47 248.031 626.668 245.021 626.668C242.025 626.668 239.967 624.484 239.967 621.32C239.967 618.156 242.039 615.958 245.035 615.958C248.045 615.958 250.117 618.142 250.117 621.306ZM247.723 621.306C247.723 619.332 246.715 618.142 245.049 618.142C243.369 618.142 242.361 619.332 242.361 621.306C242.361 623.294 243.369 624.484 245.049 624.484C246.715 624.484 247.723 623.266 247.723 621.306ZM253.627 622.608V616.14H255.895V622.454C255.895 623.756 256.609 624.47 257.883 624.47C259.171 624.47 259.899 623.728 259.899 622.454V616.14H262.167V622.608C262.167 625.072 260.487 626.668 257.883 626.668C255.293 626.668 253.627 625.086 253.627 622.608ZM268.52 626.5H266.252V616.14H270.256C272.776 616.14 274.204 617.358 274.204 619.5C274.204 620.844 273.63 621.796 272.482 622.384L274.302 626.5H271.824L270.27 622.874H268.52V626.5ZM268.52 618.156V620.886H270.242C271.236 620.886 271.81 620.382 271.81 619.5C271.81 618.632 271.264 618.156 270.256 618.156H268.52ZM285.864 626.5H283.596V616.14H285.864V620.228H289.868V616.14H292.136V626.5H289.868V622.328H285.864V626.5ZM305.863 621.306C305.863 624.47 303.777 626.668 300.767 626.668C297.771 626.668 295.713 624.484 295.713 621.32C295.713 618.156 297.785 615.958 300.781 615.958C303.791 615.958 305.863 618.142 305.863 621.306ZM303.469 621.306C303.469 619.332 302.461 618.142 300.795 618.142C299.115 618.142 298.107 619.332 298.107 621.306C298.107 623.294 299.115 624.484 300.795 624.484C302.461 624.484 303.469 623.266 303.469 621.306ZM311.641 626.5H309.443V616.14H311.641L314.721 623.868L317.815 616.14H320.041V626.5H317.843V624.33C317.843 622.09 317.843 621.6 317.955 620.83L315.757 626.5H313.685L311.501 620.83C311.627 621.6 311.641 622.468 311.641 623.602V626.5ZM330.779 626.5H324.199V616.14H330.779V618.24H326.467V620.27H330.289V622.258H326.467V624.4H330.779V626.5ZM348.46 627.396L347.298 626.08C346.584 626.458 345.744 626.668 344.82 626.668C341.824 626.668 339.766 624.484 339.766 621.32C339.766 618.156 341.838 615.958 344.834 615.958C347.844 615.958 349.916 618.142 349.916 621.306C349.916 622.72 349.496 623.952 348.768 624.862L349.888 626.136L348.46 627.396ZM347.522 621.306C347.522 619.332 346.514 618.142 344.848 618.142C343.168 618.142 342.16 619.332 342.16 621.306C342.16 623.294 343.168 624.484 344.848 624.484C345.184 624.484 345.478 624.442 345.758 624.344L344.4 622.804L345.828 621.544L347.172 623.056C347.396 622.58 347.522 621.992 347.522 621.306ZM353.426 622.608V616.14H355.694V622.454C355.694 623.756 356.408 624.47 357.682 624.47C358.97 624.47 359.698 623.728 359.698 622.454V616.14H361.966V622.608C361.966 625.072 360.286 626.668 357.682 626.668C355.092 626.668 353.426 625.086 353.426 622.608ZM367.041 626.5H364.675L368.371 616.14H370.583L374.265 626.5H371.857L371.129 624.316H367.783L367.041 626.5ZM369.183 620.2L368.441 622.412H370.485L369.743 620.2C369.631 619.85 369.505 619.444 369.463 619.192C369.421 619.43 369.309 619.822 369.183 620.2ZM379.739 616.14V624.4H383.827V626.5H377.471V616.14H379.739ZM389.518 616.14V626.5H387.25V616.14H389.518ZM399.588 622.454H395.948V626.5H393.68V616.14H400.274V618.24H395.948V620.41H399.588V622.454ZM406.096 616.14V626.5H403.828V616.14H406.096ZM416.838 626.5H410.258V616.14H416.838V618.24H412.526V620.27H416.348V622.258H412.526V624.4H416.838V626.5ZM420.119 619.15C420.119 617.274 421.701 615.944 423.927 615.944C426.153 615.944 427.553 617.176 427.553 619.136H425.299C425.299 618.408 424.753 617.96 423.899 617.96C422.975 617.96 422.387 618.38 422.387 619.066C422.387 619.696 422.709 620.004 423.437 620.158L424.991 620.48C426.839 620.858 427.721 621.74 427.721 623.378C427.721 625.38 426.153 626.682 423.773 626.682C421.463 626.682 419.965 625.436 419.965 623.49H422.219C422.219 624.246 422.779 624.666 423.787 624.666C424.809 624.666 425.453 624.26 425.453 623.602C425.453 623.028 425.187 622.734 424.501 622.594L422.919 622.272C421.071 621.894 420.119 620.844 420.119 619.15ZM432.234 626.682C431.52 626.682 430.946 626.108 430.946 625.422C430.946 624.722 431.52 624.148 432.234 624.148C432.92 624.148 433.522 624.722 433.522 625.422C433.522 626.108 432.92 626.682 432.234 626.682Z" fill="#F16336"/>
</svg>
